<svg height="512pt" viewBox="0 -13 512.00002 512" width="512pt" xmlns="http://www.w3.org/2000/svg"><path d="m298.667969 85.332031c0-23.5625-19.101563-42.664062-42.667969-42.664062-23.5625 0-42.667969 19.101562-42.667969 42.664062 0 23.566407 19.105469 42.667969 42.667969 42.667969 23.554688-.027344 42.636719-19.113281 42.667969-42.667969zm-68.269531 0c0-14.136719 11.464843-25.597656 25.601562-25.597656 14.140625 0 25.601562 11.460937 25.601562 25.597656 0 14.140625-11.460937 25.601563-25.601562 25.601563-14.136719 0-25.601562-11.460938-25.601562-25.601563zm0 0"/><path d="m486.398438 93.867188h-136.53125c0-51.839844-42.027344-93.867188-93.867188-93.867188s-93.867188 42.027344-93.867188 93.867188h-136.53125c-14.140624 0-25.601562 11.460937-25.601562 25.597656v341.335937c0 14.136719 11.460938 25.597657 25.601562 25.597657h460.796876c14.140624 0 25.601562-11.460938 25.601562-25.597657v-341.335937c0-14.136719-11.460938-25.597656-25.601562-25.597656zm8.535156 230.398437h-162.132813c-4.714843 0-8.535156-3.820313-8.535156-8.53125v-51.199219c0-4.714844 3.820313-8.535156 8.535156-8.535156h162.132813zm-8.535156-213.332031c4.714843 0 8.535156 3.820312 8.535156 8.53125v51.203125h-171.84375c11.394531-18.476563 19.800781-38.636719 24.90625-59.734375zm-230.398438-93.867188c42.394531.050782 76.75 34.40625 76.800781 76.800782 0 46.558593-57.394531 117.84375-76.800781 140.613281-19.40625-22.769531-76.800781-94.054688-76.800781-140.613281.050781-42.394532 34.40625-76.75 76.800781-76.800782zm-91.996094 93.867188c12.292969 60.925781 82.421875 138.683594 85.683594 142.277344 3.167969 3.484374 8.566406 3.742187 12.050781.574218.203125-.183594.394531-.375.578125-.574218 18.296875-20.585938 35.078125-42.46875 50.21875-65.476563h182.398438v51.199219h-162.132813c-14.140625 0-25.601562 11.460937-25.601562 25.597656v51.203125c0 14.136719 11.460937 25.597656 25.601562 25.597656h162.132813v42.667969h-221.867188c-14.136718 0-25.597656 11.460938-25.597656 25.597656v59.734375h-42.667969v-145.296875c0-14.136718-11.460937-25.597656-25.601562-25.597656h-162.132813v-42.4375h76.800782c14.136718 0 25.597656-11.460938 25.597656-25.601562v-119.464844zm-138.402344 0h76.796876v119.464844c0 4.714843-3.820313 8.535156-8.53125 8.535156h-76.800782v-119.46875c0-4.710938 3.820313-8.53125 8.535156-8.53125zm-8.535156 349.867187v-145.296875h162.132813c4.714843 0 8.535156 3.820313 8.535156 8.53125v145.296875h-162.132813c-4.714843 0-8.535156-3.820312-8.535156-8.53125zm469.332032 8.53125h-221.863282v-59.730469c0-4.714843 3.820313-8.535156 8.53125-8.535156h221.867188v59.734375c0 4.710938-3.820313 8.53125-8.535156 8.53125zm0 0"/></svg>