<?xml version="1.0" encoding="iso-8859-1"?>
<!-- Generator: Adobe Illustrator 19.0.0, SVG Export Plug-In . SVG Version: 6.00 Build 0)  -->
<svg version="1.1" id="Capa_1" xmlns="http://www.w3.org/2000/svg" xmlns:xlink="http://www.w3.org/1999/xlink" x="0px" y="0px"
	 viewBox="0 0 512 512" style="enable-background:new 0 0 512 512;" xml:space="preserve">
<g>
	<g>
		<path d="M396.035,26h-0.269c-5.523,0-10,4.477-10,10s4.477,10,10,10h0.269c5.523,0,10-4.477,10-10S401.558,26,396.035,26z"/>
	</g>
</g>
<g>
	<g>
		<path d="M96.234,346h-0.27c-5.523,0-10,4.477-10,10s4.477,10,10,10h0.27c5.523,0,10-4.477,10-10S101.757,346,96.234,346z"/>
	</g>
</g>
<g>
	<g>
		<path d="M502,346h-6V56c0-16.542-13.458-30-30-30h-29.999c-5.523,0-10,4.477-10,10s4.477,10,10,10H466c5.513,0,9.999,4.486,10,10
			H36c0-5.514,4.486-10,10-10h290.002h31.034c5.523,0,10-4.477,10-10s-4.477-10-10-10h-31.034H46c-16.542,0-30,13.458-30,30v290h-6
			c-5.523,0-10,4.477-10,10v20c0,16.542,13.458,30,30,30h256v40c0,26.26,45.276,40,90,40s90-13.739,90-40v-40h16
			c16.542,0,30-13.458,30-30v-20C512,350.477,507.522,346,502,346z M36,75.998h440v20H183.373c-0.329,0-0.658,0.017-0.986,0.05
			c-0.151,0.015-0.297,0.043-0.446,0.064c-0.174,0.025-0.348,0.045-0.521,0.08c-0.169,0.034-0.334,0.08-0.5,0.122
			c-0.15,0.038-0.301,0.071-0.449,0.115c-0.164,0.05-0.322,0.111-0.483,0.169c-0.147,0.053-0.295,0.101-0.44,0.161
			c-0.151,0.063-0.297,0.136-0.444,0.206c-0.148,0.07-0.297,0.135-0.442,0.213c-0.142,0.076-0.277,0.163-0.415,0.245
			c-0.142,0.085-0.286,0.165-0.424,0.258c-0.152,0.102-0.295,0.214-0.441,0.324c-0.115,0.086-0.233,0.166-0.346,0.258
			c-0.256,0.21-0.501,0.431-0.735,0.664l-17.07,17.071H36V75.998z M286,353.16h-73.469l-7.226-5.25
			c-1.708-1.242-3.766-1.91-5.878-1.91h-74.462c-5.523,0-10,4.477-10,10s4.477,10,10,10h71.213l7.226,5.25
			c1.708,1.242,3.766,1.91,5.878,1.91H286V386H30c-5.514,0-10-4.486-10-10v-10h36c5.523,0,10-4.477,10-10s-4.477-10-10-10H36
			v-10.001h250V353.16z M446,446c0,5.804-24.53,20-70,20c-45.47,0-70-14.195-70-20v-15.176c2.907,1.682,6.109,3.255,9.603,4.703
			C331.898,442.281,353.348,446,376,446c22.652,0,44.102-3.72,60.397-10.474c3.493-1.448,6.696-3.02,9.603-4.703V446z M446,402.842
			c0,7.86-24.708,23.158-70,23.158s-70-15.298-70-23.158v-16.229c2.907,1.682,6.109,3.255,9.603,4.702
			c16.295,6.754,37.745,10.474,60.397,10.474c22.652,0,44.102-3.72,60.397-10.474c3.493-1.448,6.696-3.02,9.603-4.702V402.842z
			 M446,358.632c0,7.86-24.708,23.158-70,23.158s-70-15.298-70-23.158v-16.229c2.907,1.682,6.109,3.255,9.603,4.703
			c16.295,6.754,37.745,10.474,60.397,10.474c22.652,0,44.102-3.72,60.397-10.474c3.493-1.448,6.696-3.02,9.603-4.703V358.632z
			 M446,314.421c0,7.86-24.708,23.158-70,23.158s-70-15.298-70-23.158v-16.229c2.907,1.682,6.109,3.255,9.603,4.703
			c16.295,6.754,37.745,10.474,60.397,10.474c22.652,0,44.102-3.72,60.397-10.474c3.493-1.448,6.696-3.02,9.603-4.703V314.421z
			 M446,270.21c0,7.86-24.708,23.158-70,23.158s-70-15.298-70-23.158v-16.229c2.907,1.682,6.109,3.255,9.603,4.703
			c16.295,6.754,37.745,10.474,60.397,10.474c22.652,0,44.102-3.72,60.397-10.474c3.493-1.448,6.696-3.021,9.603-4.703V270.21z
			 M376,249.158c-45.292,0-70-15.298-70-23.158c0-5.804,24.53-20,70-20c45.47,0,70,14.196,70,20
			C446,233.86,421.292,249.158,376,249.158z M376,186c-44.724,0-90,13.74-90,40v89.999H36v-180h127.373
			c2.652,0,5.196-1.054,7.071-2.929l17.071-17.072H476v200h-10V226C466,199.74,420.724,186,376,186z M476,335.999V346h-10v-10.001
			H476z M492,376c0,5.514-4.486,10-10,10h-16v-20h26V376z"/>
	</g>
</g>
<g>
	<g>
		<path d="M60.769,85.999H60.5c-5.523,0-10,4.477-10,10c0,5.523,4.477,10,10,10h0.269c5.523,0,10-4.477,10-10
			C70.769,90.476,66.292,85.999,60.769,85.999z"/>
	</g>
</g>
<g>
	<g>
		<path d="M100.769,85.999H100.5c-5.523,0-10,4.477-10,10c0,5.523,4.477,10,10,10h0.269c5.523,0,10-4.477,10-10
			C110.769,90.476,106.292,85.999,100.769,85.999z"/>
	</g>
</g>
<g>
	<g>
		<path d="M140.77,85.999h-0.27c-5.523,0-10,4.477-10,10c0,5.523,4.477,10,10,10h0.27c5.523,0,10-4.477,10-10
			C150.77,90.476,146.293,85.999,140.77,85.999z"/>
	</g>
</g>
<g>
	<g>
		<path d="M221.619,190.998c-12.464-21.589-35.694-35-60.622-35c-24.386,0-46.49,12.693-59.089,32.507l-4.38-7.585
			c-2.761-4.784-8.878-6.422-13.66-3.66c-4.783,2.761-6.422,8.877-3.66,13.66l14.172,24.546c0.013,0.023,0.029,0.044,0.043,0.067
			c0.125,0.212,0.258,0.417,0.397,0.617c0.036,0.052,0.069,0.106,0.106,0.157c0.057,0.079,0.116,0.155,0.175,0.231
			c0.044,0.058,0.091,0.113,0.137,0.17c0.072,0.09,0.142,0.182,0.217,0.27c0.016,0.019,0.03,0.039,0.047,0.058
			c0.139,0.159,0.286,0.308,0.434,0.458c0.047,0.047,0.09,0.098,0.138,0.144c0.018,0.017,0.036,0.035,0.054,0.052
			c0.09,0.087,0.186,0.165,0.279,0.248c0.131,0.116,0.261,0.233,0.397,0.342c0.057,0.046,0.114,0.092,0.173,0.137
			c0.068,0.052,0.14,0.098,0.209,0.148c0.117,0.084,0.234,0.169,0.354,0.248c0.126,0.083,0.255,0.162,0.385,0.239
			c0.04,0.024,0.078,0.05,0.117,0.073c0.04,0.023,0.078,0.047,0.118,0.07c0.062,0.035,0.127,0.064,0.19,0.097
			c0.121,0.064,0.242,0.128,0.366,0.187c0.144,0.069,0.291,0.133,0.439,0.196c0.071,0.03,0.14,0.061,0.211,0.089
			c0.062,0.024,0.122,0.05,0.185,0.073c0.67,0.25,1.37,0.426,2.089,0.528c0.041,0.006,0.082,0.018,0.122,0.023
			c0.037,0.005,0.075,0.003,0.112,0.007c0.382,0.045,0.767,0.076,1.158,0.076c0.002,0,0.004,0,0.005,0
			c0.004,0,0.008,0.001,0.012,0.001c0.31,0,0.617-0.018,0.922-0.047c0.051-0.005,0.102-0.014,0.153-0.019
			c0.02-0.002,0.04-0.005,0.06-0.008c0.088-0.01,0.175-0.02,0.263-0.033c0.15-0.021,0.299-0.046,0.448-0.074
			c0.032-0.006,0.063-0.008,0.095-0.014l27.804-5.521c5.417-1.076,8.937-6.339,7.861-11.756s-6.336-8.936-11.756-7.861l-8.49,1.686
			c9.202-12.774,24.171-20.827,40.588-20.827c17.806,0,34.398,9.58,43.302,25c2.761,4.782,8.877,6.421,13.66,3.66
			S224.381,195.781,221.619,190.998z"/>
	</g>
</g>
<g>
	<g>
		<path d="M241.789,261.077l-14.171-24.546c-0.046-0.08-0.101-0.154-0.149-0.232c-0.105-0.17-0.209-0.34-0.323-0.503
			c-0.023-0.033-0.044-0.067-0.067-0.099c-0.061-0.085-0.129-0.163-0.193-0.246c-0.105-0.136-0.208-0.274-0.319-0.404
			c-0.033-0.038-0.063-0.078-0.097-0.115c-0.086-0.098-0.178-0.187-0.266-0.28c-0.093-0.098-0.184-0.197-0.28-0.291
			c-0.045-0.044-0.088-0.089-0.134-0.132c-0.103-0.097-0.213-0.185-0.32-0.277c-0.085-0.073-0.168-0.148-0.255-0.218
			c-0.058-0.046-0.114-0.094-0.173-0.139c-0.11-0.085-0.226-0.16-0.34-0.24c-0.089-0.063-0.176-0.127-0.267-0.187
			c-0.067-0.044-0.132-0.089-0.201-0.132c-0.107-0.067-0.219-0.124-0.329-0.187c-0.107-0.061-0.213-0.123-0.322-0.18
			c-0.068-0.036-0.135-0.074-0.204-0.108c-0.099-0.049-0.201-0.088-0.301-0.134c-0.138-0.063-0.275-0.124-0.416-0.18
			c-0.06-0.024-0.118-0.052-0.18-0.075c-0.088-0.033-0.178-0.058-0.267-0.088c-0.171-0.059-0.343-0.116-0.518-0.166
			c-0.051-0.015-0.1-0.035-0.151-0.048c-0.001,0-0.002-0.001-0.003-0.001c-0.076-0.02-0.155-0.032-0.232-0.05
			c-0.184-0.045-0.369-0.087-0.557-0.121c-0.059-0.011-0.117-0.026-0.177-0.036c-0.088-0.015-0.175-0.021-0.263-0.033
			c-0.168-0.023-0.336-0.044-0.506-0.059c-0.068-0.006-0.135-0.015-0.203-0.02c-0.109-0.007-0.218-0.006-0.327-0.01
			c-0.14-0.004-0.279-0.008-0.42-0.007c-0.077,0.001-0.153-0.002-0.23,0c-0.131,0.004-0.26,0.018-0.391,0.027
			c-0.113,0.008-0.225,0.015-0.338,0.027c-0.083,0.009-0.165,0.014-0.248,0.025c-0.147,0.019-0.291,0.049-0.436,0.075
			c-0.07,0.012-0.139,0.017-0.209,0.031l-27.805,5.521c-5.417,1.076-8.937,6.339-7.861,11.756c0.945,4.76,5.123,8.055,9.798,8.055
			c0.646,0,1.301-0.063,1.958-0.193l8.49-1.686c-9.203,12.774-24.172,20.828-40.588,20.828c-17.806,0-34.398-9.58-43.301-25
			c-2.761-4.784-8.878-6.422-13.66-3.66c-4.783,2.761-6.422,8.877-3.66,13.66c12.464,21.589,35.693,35,60.622,35
			c24.386,0,46.49-12.694,59.089-32.507l4.379,7.585c1.852,3.208,5.213,5.002,8.669,5.002c1.696,0,3.416-0.433,4.991-1.342
			C242.911,271.976,244.55,265.86,241.789,261.077z"/>
	</g>
</g>
<g>
</g>
<g>
</g>
<g>
</g>
<g>
</g>
<g>
</g>
<g>
</g>
<g>
</g>
<g>
</g>
<g>
</g>
<g>
</g>
<g>
</g>
<g>
</g>
<g>
</g>
<g>
</g>
<g>
</g>
</svg>
