<svg height="512.00003pt" viewBox="0 0 512.00003 512.00003" width="512.00003pt" xmlns="http://www.w3.org/2000/svg"><path d="m486.398438 136.535156h-179.199219v-93.867187c-.027344-23.554688-19.113281-42.6406252-42.664063-42.667969h-221.867187c-23.554688.0273438-42.6406252 19.113281-42.667969 42.667969v426.664062c.0273438 23.554688 19.113281 42.640625 42.667969 42.667969h443.730469c14.140624 0 25.601562-11.460938 25.601562-25.601562v-324.265626c0-14.136718-11.460938-25.597656-25.601562-25.597656zm-221.863282 0v-8.535156c0-9.425781-7.644531-17.066406-17.070312-17.066406h-187.730469c-9.425781 0-17.066406 7.640625-17.066406 17.066406v85.332031c0 9.425781 7.640625 17.066407 17.066406 17.066407h128v34.136718h-17.066406c-9.425781 0-17.066407 7.640625-17.066407 17.066406v85.332032c0 9.425781 7.640626 17.066406 17.066407 17.066406h17.066406v42.667969h-170.667969v-341.335938h273.066406v51.203125zm-51.203125 0c-12.527343.039063-23.1875 9.140625-25.1875 21.511719l-29.175781 27.253906-29.195312-29.199219c-1.597657-1.605468-3.773438-2.507812-6.039063-2.507812-2.269531 0-4.441406.902344-6.042969 2.507812l-57.179687 57.230469h-.777344v-85.332031h187.730469v8.535156zm-60.976562 66.292969c.058593.058594.066406.144531.125.207031.0625.058594.1875.109375.265625.1875l10.121094 10.109375h-78.226563l39.09375-39.125zm18.6875-5.453125 16.691406-15.613281v31.570312h-.734375zm16.691406 169.558594h-17.066406v-85.332032h17.066406zm-145.066406-349.867188h221.867187c14.136719 0 25.597656 11.460938 25.597656 25.601563v25.597656h-273.066406v-25.597656c0-14.140625 11.460938-25.601563 25.601563-25.601563zm-25.601563 452.265625v-25.597656h170.667969v17.066406h-76.800781c-4.714844 0-8.535156 3.820313-8.535156 8.53125 0 4.714844 3.820312 8.535157 8.535156 8.535157h76.800781v8.53125c.027344 2.914062.558594 5.800781 1.570313 8.535156h-146.636719c-6.789063 0-13.300781-2.699219-18.101563-7.5-4.800781-4.800782-7.5-11.3125-7.5-18.101563zm477.867188 17.066407c0 4.714843-3.820313 8.535156-8.535156 8.535156h-273.066407c-4.710937 0-8.53125-3.820313-8.53125-8.535156v-324.265626c0-4.710937 3.820313-8.53125 8.53125-8.53125h273.066407c4.714843 0 8.535156 3.820313 8.535156 8.53125zm0 0"/><path d="m238.933594 264.535156c4.710937 0 8.53125-3.824218 8.53125-8.535156v-42.667969h42.667968c4.714844 0 8.535157-3.820312 8.535157-8.53125 0-4.714843-3.820313-8.535156-8.535157-8.535156h-42.667968c-9.425782 0-17.066406 7.640625-17.066406 17.066406v42.667969c0 4.710938 3.820312 8.535156 8.535156 8.535156zm0 0"/><path d="m317.167969 200.0625-28.355469 42.546875-9.710938-9.710937c-3.351562-3.230469-8.671874-3.1875-11.964843.105468-3.289063 3.292969-3.335938 8.613282-.101563 11.960938l17.066406 17.066406c1.597657 1.601562 3.769532 2.5 6.03125 2.503906h.855469c2.539063-.253906 4.835938-1.632812 6.253907-3.757812l34.132812-51.199219c1.691406-2.535156 1.902344-5.78125.550781-8.515625-1.351562-2.734375-4.054687-4.539062-7.097656-4.738281-3.042969-.195313-5.960937 1.246093-7.652344 3.78125zm0 0"/><path d="m238.933594 358.398438c4.710937 0 8.53125-3.820313 8.53125-8.53125v-42.667969h42.667968c4.714844 0 8.535157-3.820313 8.535157-8.53125 0-4.714844-3.820313-8.535157-8.535157-8.535157h-42.667968c-9.425782 0-17.066406 7.640626-17.066406 17.066407v42.667969c0 4.710937 3.820312 8.53125 8.535156 8.53125zm0 0"/><path d="m317.167969 293.929688-28.355469 42.546874-9.710938-9.710937c-3.351562-3.234375-8.671874-3.1875-11.964843.105469-3.289063 3.292968-3.335938 8.613281-.101563 11.960937l17.066406 17.066407c1.597657 1.601562 3.769532 2.5 6.03125 2.5.28125 0 .554688 0 .855469-.042969 2.539063-.25 4.835938-1.628907 6.253907-3.753907l34.132812-51.199218c1.691406-2.535156 1.902344-5.78125.550781-8.515625-1.351562-2.734375-4.054687-4.539063-7.097656-4.738281-3.042969-.195313-5.960937 1.246093-7.652344 3.78125zm0 0"/><path d="m298.667969 392.535156c0-4.714844-3.820313-8.535156-8.535157-8.535156h-42.667968c-9.425782 0-17.066406 7.640625-17.066406 17.066406v42.667969c0 4.710937 3.820312 8.53125 8.535156 8.53125 4.710937 0 8.53125-3.820313 8.53125-8.53125v-42.667969h42.667968c4.714844 0 8.535157-3.820312 8.535157-8.53125zm0 0"/><path d="m317.167969 387.796875-28.355469 42.546875-9.710938-9.710938c-3.351562-3.234374-8.671874-3.1875-11.964843.105469-3.289063 3.289063-3.335938 8.613281-.101563 11.960938l17.066406 17.066406c1.597657 1.601563 3.769532 2.5 6.03125 2.5.28125 0 .554688 0 .855469-.042969 2.539063-.25 4.835938-1.628906 6.253907-3.753906l34.132812-51.199219c1.691406-2.535156 1.902344-5.78125.550781-8.515625-1.351562-2.734375-4.054687-4.539062-7.097656-4.738281-3.042969-.195313-5.960937 1.246094-7.652344 3.78125zm0 0"/><path d="m366.933594 221.867188h59.734375c4.710937 0 8.53125-3.820313 8.53125-8.535157 0-4.710937-3.820313-8.53125-8.53125-8.53125h-59.734375c-4.714844 0-8.535156 3.820313-8.535156 8.53125 0 4.714844 3.820312 8.535157 8.535156 8.535157zm0 0"/><path d="m469.332031 204.800781h-8.53125c-4.714843 0-8.535156 3.820313-8.535156 8.53125 0 4.714844 3.820313 8.535157 8.535156 8.535157h8.53125c4.714844 0 8.535157-3.820313 8.535157-8.535157 0-4.710937-3.820313-8.53125-8.535157-8.53125zm0 0"/><path d="m401.066406 247.464844c0 4.714844 3.820313 8.535156 8.535156 8.535156h34.132813c4.710937 0 8.53125-3.820312 8.53125-8.535156 0-4.710938-3.820313-8.53125-8.53125-8.53125h-34.132813c-4.714843 0-8.535156 3.820312-8.535156 8.53125zm0 0"/><path d="m366.933594 256h8.53125c4.714844 0 8.535156-3.820312 8.535156-8.535156 0-4.710938-3.820312-8.53125-8.535156-8.53125h-8.53125c-4.714844 0-8.535156 3.820312-8.535156 8.53125 0 4.714844 3.820312 8.535156 8.535156 8.535156zm0 0"/><path d="m366.933594 315.734375h59.734375c4.710937 0 8.53125-3.820313 8.53125-8.535156 0-4.710938-3.820313-8.53125-8.53125-8.53125h-59.734375c-4.714844 0-8.535156 3.820312-8.535156 8.53125 0 4.714843 3.820312 8.535156 8.535156 8.535156zm0 0"/><path d="m469.332031 298.667969h-8.53125c-4.714843 0-8.535156 3.820312-8.535156 8.53125 0 4.714843 3.820313 8.535156 8.535156 8.535156h8.53125c4.714844 0 8.535157-3.820313 8.535157-8.535156 0-4.710938-3.820313-8.53125-8.535157-8.53125zm0 0"/><path d="m443.734375 332.800781h-34.132813c-4.714843 0-8.535156 3.820313-8.535156 8.53125 0 4.714844 3.820313 8.535157 8.535156 8.535157h34.132813c4.710937 0 8.53125-3.820313 8.53125-8.535157 0-4.710937-3.820313-8.53125-8.53125-8.53125zm0 0"/><path d="m366.933594 349.867188h8.53125c4.714844 0 8.535156-3.820313 8.535156-8.535157 0-4.710937-3.820312-8.53125-8.535156-8.53125h-8.53125c-4.714844 0-8.535156 3.820313-8.535156 8.53125 0 4.714844 3.820312 8.535157 8.535156 8.535157zm0 0"/><path d="m366.933594 409.601562h59.734375c4.710937 0 8.53125-3.820312 8.53125-8.535156 0-4.710937-3.820313-8.53125-8.53125-8.53125h-59.734375c-4.714844 0-8.535156 3.820313-8.535156 8.53125 0 4.714844 3.820312 8.535156 8.535156 8.535156zm0 0"/><path d="m469.332031 392.535156h-8.53125c-4.714843 0-8.535156 3.820313-8.535156 8.53125 0 4.714844 3.820313 8.535156 8.535156 8.535156h8.53125c4.714844 0 8.535157-3.820312 8.535157-8.535156 0-4.710937-3.820313-8.53125-8.535157-8.53125zm0 0"/><path d="m443.734375 426.667969h-34.132813c-4.714843 0-8.535156 3.820312-8.535156 8.53125 0 4.714843 3.820313 8.535156 8.535156 8.535156h34.132813c4.710937 0 8.53125-3.820313 8.53125-8.535156 0-4.710938-3.820313-8.53125-8.53125-8.53125zm0 0"/><path d="m375.464844 426.667969h-8.53125c-4.714844 0-8.535156 3.820312-8.535156 8.53125 0 4.714843 3.820312 8.535156 8.535156 8.535156h8.53125c4.714844 0 8.535156-3.820313 8.535156-8.535156 0-4.710938-3.820312-8.53125-8.535156-8.53125zm0 0"/><path d="m119.464844 51.199219h8.535156c4.710938 0 8.535156-3.820313 8.535156-8.53125 0-4.714844-3.824218-8.535157-8.535156-8.535157h-8.535156c-4.710938 0-8.53125 3.820313-8.53125 8.535157 0 4.710937 3.820312 8.53125 8.53125 8.53125zm0 0"/><path d="m162.132812 51.199219h25.601563c4.710937 0 8.53125-3.820313 8.53125-8.53125 0-4.714844-3.820313-8.535157-8.53125-8.535157h-25.601563c-4.710937 0-8.53125 3.820313-8.53125 8.535157 0 4.710937 3.820313 8.53125 8.53125 8.53125zm0 0"/><path d="m85.332031 315.734375h42.667969c4.710938 0 8.535156-3.820313 8.535156-8.535156 0-4.710938-3.824218-8.53125-8.535156-8.53125h-42.667969c-4.710937 0-8.53125 3.820312-8.53125 8.53125 0 4.714843 3.820313 8.535156 8.53125 8.535156zm0 0"/><path d="m55.894531 300.117188c-.4375-.335938-.929687-.597657-1.453125-.769532-.511718-.257812-1.0625-.429687-1.628906-.511718-1.0625-.253907-2.171875-.253907-3.234375 0-.566406.082031-1.113281.253906-1.621094.511718-.546875.191406-1.066406.449219-1.542969.769532l-1.273437 1.023437c-1.5625 1.632813-2.445313 3.800781-2.472656 6.058594-.03125 1.121093.203125 2.230469.679687 3.242187.433594 1.035156 1.039063 1.988282 1.792969 2.816406l1.273437 1.023438c.476563.324219.996094.582031 1.542969.769531.507813.257813 1.054688.433594 1.621094.511719.535156.097656 1.078125.15625 1.621094.171875.542969-.015625 1.082031-.074219 1.613281-.171875.566406-.078125 1.117188-.253906 1.628906-.511719.523438-.171875 1.015625-.429687 1.453125-.769531.503907-.339844.9375-.679688 1.363281-1.023438.753907-.828124 1.359376-1.78125 1.792969-2.816406.4375-1.023437.667969-2.125.683594-3.242187-.035156-2.257813-.917969-4.421875-2.476563-6.058594-.425781-.339844-.859374-.683594-1.363281-1.023437zm0 0"/><path d="m85.332031 281.601562h42.667969c4.710938 0 8.535156-3.820312 8.535156-8.535156 0-4.710937-3.824218-8.53125-8.535156-8.53125h-42.667969c-4.710937 0-8.53125 3.820313-8.53125 8.53125 0 4.714844 3.820313 8.535156 8.53125 8.535156zm0 0"/><path d="m43.347656 276.335938c.433594 1.03125 1.039063 1.984374 1.792969 2.816406l1.273437 1.015625c.476563.324219.996094.582031 1.542969.773437.511719.253906 1.058594.425782 1.621094.511719.535156.089844 1.078125.136719 1.621094.148437.542969-.019531 1.082031-.078124 1.613281-.171874.566406-.089844 1.117188-.261719 1.628906-.511719.523438-.175781 1.015625-.4375 1.453125-.777344.503907-.332031.9375-.675781 1.363281-1.015625.753907-.828125 1.359376-1.78125 1.792969-2.816406.4375-1.023438.667969-2.125.683594-3.242188-.03125-2.257812-.917969-4.421875-2.476563-6.058594-.425781-.339843-.851562-.683593-1.363281-1.023437-.4375-.339844-.929687-.601563-1.453125-.777344-.507812-.261719-1.058594-.429687-1.628906-.503906-1.0625-.261719-2.171875-.261719-3.234375 0-.566406.074219-1.113281.242187-1.621094.503906-.546875.191407-1.066406.453125-1.542969.777344l-1.273437 1.023437c-1.5625 1.632813-2.445313 3.796876-2.472656 6.058594-.035157 1.128906.199219 2.246094.679687 3.269532zm0 0"/><path d="m85.332031 349.867188h42.667969c4.710938 0 8.535156-3.820313 8.535156-8.535157 0-4.710937-3.824218-8.53125-8.535156-8.53125h-42.667969c-4.710937 0-8.53125 3.820313-8.53125 8.53125 0 4.714844 3.820313 8.535157 8.53125 8.535157zm0 0"/><path d="m55.894531 334.277344c-.4375-.339844-.929687-.601563-1.453125-.777344-.507812-.261719-1.058594-.429688-1.628906-.503906-1.0625-.265625-2.171875-.265625-3.234375 0-.566406.074218-1.113281.242187-1.621094.503906-.546875.191406-1.066406.453125-1.542969.777344l-1.273437 1.023437c-1.554687 1.625-2.441406 3.78125-2.472656 6.03125-.03125 1.121094.203125 2.230469.679687 3.242188.433594 1.035156 1.039063 1.988281 1.792969 2.816406l1.273437 1.015625c.476563.324219.996094.585938 1.542969.777344.511719.253906 1.058594.425781 1.621094.511718.535156.097657 1.078125.152344 1.621094.171876.542969-.019532 1.082031-.074219 1.613281-.171876.566406-.085937 1.117188-.257812 1.628906-.511718.523438-.175782 1.015625-.4375 1.453125-.777344.503907-.332031.9375-.671875 1.363281-1.015625.753907-.828125 1.359376-1.78125 1.792969-2.816406.4375-1.023438.667969-2.125.683594-3.242188-.03125-2.257812-.917969-4.421875-2.476563-6.058593-.425781-.316407-.859374-.65625-1.363281-.996094zm0 0"/><path d="m85.332031 384h42.667969c4.710938 0 8.535156-3.820312 8.535156-8.535156 0-4.710938-3.824218-8.53125-8.535156-8.53125h-42.667969c-4.710937 0-8.53125 3.820312-8.53125 8.53125 0 4.714844 3.820313 8.535156 8.53125 8.535156zm0 0"/><path d="m55.894531 368.382812c-.4375-.335937-.929687-.59375-1.453125-.765624-.511718-.261719-1.0625-.433594-1.628906-.511719-1.0625-.257813-2.171875-.257813-3.234375 0-.566406.078125-1.113281.25-1.621094.511719-.546875.1875-1.066406.445312-1.542969.765624l-1.273437 1.023438c-1.5625 1.636719-2.445313 3.800781-2.472656 6.058594-.03125 1.121094.203125 2.230468.679687 3.246094.433594 1.03125 1.039063 1.984374 1.792969 2.8125l1.273437 1.027343c.476563.320313.996094.578125 1.542969.765625.507813.261719 1.054688.433594 1.621094.511719.535156.101563 1.078125.15625 1.621094.171875.542969-.015625 1.082031-.070312 1.613281-.171875.566406-.078125 1.117188-.25 1.628906-.511719.523438-.171875 1.015625-.429687 1.453125-.765625.503907-.34375.9375-.683593 1.363281-1.027343.753907-.828126 1.359376-1.78125 1.792969-2.8125.4375-1.027344.667969-2.128907.683594-3.246094-.035156-2.257813-.917969-4.421875-2.476563-6.058594-.425781-.339844-.859374-.679688-1.363281-1.023438zm0 0"/></svg>