<svg height="496pt" viewBox="-43 0 496 496" width="496pt" xmlns="http://www.w3.org/2000/svg"><path d="m377.886719 336h-28.941407v-21.40625c0-24.144531-15.394531-45.496094-38.289062-53.121094l-57.710938-19.242187v-20.71875c8.863282-7.960938 15.734376-18.0625 19.796876-29.511719h12.203124c13.230469 0 24-10.769531 24-24v-64c0-57.34375-46.65625-104-104-104s-104 46.65625-104 104v40c0 13.230469 10.765626 24 24 24h8c0 21.257812 9.3125 40.328125 24 53.511719v20.71875l-57.714843 19.242187c-22.894531 7.632813-38.285157 28.984375-38.285157 53.121094v21.40625h-28.945312l-32 64h28.945312v96h352v-96h28.941407zm-84.941407-168c0 4.414062-3.585937 8-8 8h-8.472656c.296875-2.632812.472656-5.296875.472656-8h8c2.816407 0 5.488282-.574219 8-1.472656zm0-32v8c0 4.414062-3.585937 8-8 8h-8v-32h8c4.414063 0 8 3.585938 8 8zm-160 16h-8c-4.417968 0-8-3.585938-8-8v-16c0-4.414062 3.582032-8 8-8h8zm0-64v16h-8c-2.816406 0-5.488281.574219-8 1.472656v-1.472656c0-48.519531 39.480469-88 88-88 48.519532 0 88 39.480469 88 88v1.472656c-2.511718-.898437-5.183593-1.472656-8-1.472656h-8v-16h-14.058593c-19.75 0-38.320313-7.6875-52.285157-21.65625l-5.65625-5.65625-5.65625 5.65625c-13.96875 13.96875-32.527343 21.65625-52.28125 21.65625zm16 80v-64.023438c20.726563-.433593 40.292969-7.839843 56-21.121093 15.703126 13.273437 35.269532 20.679687 56 21.121093v64.023438c0 2.71875-.265624 5.375-.640624 8h-24.832032c-3.3125-9.289062-12.113281-16-22.527344-16h-16c-13.234374 0-24 10.769531-24 24s10.765626 24 24 24h16c10.414063 0 19.214844-6.710938 22.527344-16h19.992188c-9.007813 18.886719-28.242188 32-50.519532 32-30.875 0-56-25.128906-56-56zm72 16c0 4.414062-3.585937 8-8 8h-16c-4.417968 0-8-3.585938-8-8s3.582032-8 8-8h16c4.414063 0 8 3.585938 8 8zm-48 60.6875v-12.289062c9.65625 4.816406 20.496094 7.601562 32 7.601562 11.503907 0 22.34375-2.777344 32-7.601562v12.28125l-32 32zm19.101563 41.726562-22.320313 13.394532-11.933593-40.984375 5-1.664063zm55.058594-29.261718 5 1.664062-11.9375 40.984375-22.320313-13.394531zm-170.160157 57.441406c0-17.242188 10.992188-32.496094 27.351563-37.945312l38.304687-12.769532 17.566407 60.3125 44.777343-26.863281 44.78125 26.871094 17.570313-60.3125 38.304687 12.769531c16.351563 5.449219 27.34375 20.695312 27.34375 37.9375v21.40625h-256zm-51.058593 69.40625 16-32h118.113281l-16 32zm147.058593 96h-128v-80h108.941407l19.058593-38.113281zm192 0h-176v-118.113281l19.054688 38.113281h156.945312zm-147.058593-96-16-32h166.113281l16 32zm0 0"/><path d="m60.945312 448h96v16h-96zm0 0"/><path d="m60.945312 416h96v16h-96zm0 0"/></svg>