<?xml version="1.0" encoding="iso-8859-1"?>
<!-- Generator: Adobe Illustrator 18.0.0, SVG Export Plug-In . SVG Version: 6.00 Build 0)  -->
<!DOCTYPE svg PUBLIC "-//W3C//DTD SVG 1.1//EN" "http://www.w3.org/Graphics/SVG/1.1/DTD/svg11.dtd">
<svg version="1.1" id="Capa_1" xmlns="http://www.w3.org/2000/svg" xmlns:xlink="http://www.w3.org/1999/xlink" x="0px" y="0px"
	 viewBox="0 0 489.535 489.535" style="enable-background:new 0 0 489.535 489.535;" xml:space="preserve">
<g>
	<path d="M292.128,151.386l-8.411,11.917c1.603,0.385,3.133,0.98,4.854,0.98h82.11c11.777,0,21.332-9.549,21.332-21.333V67
		c0-11.786-9.555-21.333-21.332-21.333h-82.11c-11.777,0-21.333,9.547-21.333,21.333v21.205c5.287,1.098,10.439,3.24,15.128,6.548
		C300.699,107.697,305.08,133.045,292.128,151.386z"/>
	<path d="M258.209,199.233c-10.672,14.035-29.228,19.722-45.968,13.691l-12.942-4.641c-2.549,3.514-4.359,7.608-4.359,12.282v75.951
		c0,11.786,9.556,21.333,21.333,21.333h82.11c11.776,0,21.332-9.547,21.332-21.333v-75.951c0-11.786-9.556-21.333-21.332-21.333
		H258.209z"/>
	<path d="M156.811,109.766c5.923,0.198,11.771,1.18,17.385,3.176l36.379,13.055l15.174-21.483
		c3.455-4.896,7.838-8.714,12.699-11.553V67c0-11.786-9.556-21.333-21.332-21.333h-34.469c0.431,3.131,0.959,6.236,0.959,9.484
		C183.606,77.358,173.002,96.946,156.811,109.766z"/>
	<path d="M113.673,108.831c29.649,0,53.68-24.03,53.68-53.68s-24.03-53.689-53.68-53.689c-29.65,0-53.697,24.039-53.697,53.689
		S84.023,108.831,113.673,108.831z"/>
	<path d="M348.506,220.566v75.951c0,11.786,9.556,21.333,21.333,21.333h82.11c11.777,0,21.332-9.547,21.332-21.333v-75.951
		c0-11.786-9.555-21.333-21.332-21.333h-82.11C358.062,199.233,348.506,208.78,348.506,220.566z"/>
	<path d="M473.281,340.769H172.75v-159.27l44.967,16.131c10.317,3.698,21.842,0.056,28.158-8.889l32.983-46.729
		c7.762-11.008,5.143-26.214-5.856-33.983c-11.017-7.785-26.238-5.135-33.984,5.857l-22.285,31.586l-47.998-17.222
		c-4.477-1.587-9.127-2.397-13.841-2.397H81.705c-17.873,0-33.586,11.42-39.109,28.404L1.199,281.502
		c-4.158,12.801,2.842,26.555,15.65,30.721c2.508,0.817,5.048,1.206,7.54,1.206c10.285,0,19.841-6.547,23.19-16.849l7.015-21.56
		v188.389c0,13.62,11.049,24.665,24.667,24.665c13.618,0,24.666-11.04,24.666-24.665V315.991h19.491v147.417
		c0,13.626,11.047,24.665,24.666,24.665c13.619,0,24.666-11.04,24.666-24.665v-90.132h300.531c8.984,0,16.254-7.278,16.254-16.253
		C489.535,348.047,482.266,340.769,473.281,340.769z"/>
</g>
<g>
</g>
<g>
</g>
<g>
</g>
<g>
</g>
<g>
</g>
<g>
</g>
<g>
</g>
<g>
</g>
<g>
</g>
<g>
</g>
<g>
</g>
<g>
</g>
<g>
</g>
<g>
</g>
<g>
</g>
</svg>
