<?xml version="1.0" encoding="iso-8859-1"?>
<!-- Generator: Adobe Illustrator 19.0.0, SVG Export Plug-In . SVG Version: 6.00 Build 0)  -->
<svg version="1.1" id="Capa_1" xmlns="http://www.w3.org/2000/svg" xmlns:xlink="http://www.w3.org/1999/xlink" x="0px" y="0px"
	 viewBox="0 0 480 480" style="enable-background:new 0 0 480 480;" xml:space="preserve">
<g>
	<g>
		<path d="M472,0h-48h-48h-48h-48h-48h-48c-4.424,0-8,3.584-8,8v128h-40.888C145.52,125.824,152,111.664,152,96
			c0-30.88-25.128-56-56-56S40,65.12,40,96c0,15.664,6.48,29.824,16.888,40H56c-30.872,0-56,25.12-56,56v88c0,4.416,3.576,8,8,8h32
			v136c0,4.416,3.576,8,8,8h96c4.424,0,8-3.584,8-8V192h24v128v152c0,4.416,3.576,8,8,8h144h144c4.424,0,8-3.584,8-8V320V168V8
			C480,3.584,476.424,0,472,0z M240,16h32v48h-32V16z M56,96c0-22.056,17.944-40,40-40c22.056,0,40,17.944,40,40
			c0,22.056-17.944,40-40,40C73.944,136,56,118.056,56,96z M144,176c-4.424,0-8,3.584-8,8v232h-32V280H88v136H56V280v-88H40v80H16
			v-80c0-22.056,17.944-40,40-40h128h56v16v8h-8h-48H144z M248,192c4.424,0,8-3.584,8-8v-8h16v48h-32v-32H248z M320,464H192V328h32
			v56c0,4.416,3.576,8,8,8h48c4.424,0,8-3.584,8-8v-56h32V464z M240,376v-48h32v48H240z M320,312h-40h-48h-40V192h32v40
			c0,4.416,3.576,8,8,8h48c4.424,0,8-3.584,8-8v-56h32V312z M320,160h-40h-24v-16c0-4.416-3.576-8-8-8h-56V16h32v56
			c0,4.416,3.576,8,8,8h48c4.424,0,8-3.584,8-8V16h32V160z M384,16h32v48h-32V16z M464,464H336V328h32v56c0,4.416,3.576,8,8,8h48
			c4.424,0,8-3.584,8-8v-56h32V464z M384,376v-48h32v48H384z M464,312h-40h-48h-40V176h32v56c0,4.416,3.576,8,8,8h48
			c4.424,0,8-3.584,8-8v-56h32V312z M384,224v-48h32v48H384z M464,160h-40h-48h-40V16h32v56c0,4.416,3.576,8,8,8h48
			c4.424,0,8-3.584,8-8V16h32V160z"/>
	</g>
</g>
<g>
</g>
<g>
</g>
<g>
</g>
<g>
</g>
<g>
</g>
<g>
</g>
<g>
</g>
<g>
</g>
<g>
</g>
<g>
</g>
<g>
</g>
<g>
</g>
<g>
</g>
<g>
</g>
<g>
</g>
</svg>
