<svg height="511.99994pt" viewBox="1 1 511.99994 511.99994" width="511.99994pt" xmlns="http://www.w3.org/2000/svg"><path d="m503.464844 0h-494.933594c-4.710938 0-8.53125 3.820312-8.53125 8.53125v341.335938c0 4.710937 3.820312 8.53125 8.53125 8.53125h85.335938v145.066406c0 4.714844 3.820312 8.535156 8.53125 8.535156h25.601562c4.714844 0 8.53125-3.820312 8.53125-8.535156v-145.066406h238.933594v145.066406c0 4.714844 3.820312 8.535156 8.535156 8.535156h25.597656c4.714844 0 8.535156-3.820312 8.535156-8.535156v-145.066406h85.332032c4.714844 0 8.535156-3.820313 8.535156-8.53125v-341.335938c0-4.710938-3.820312-8.53125-8.535156-8.53125zm-384 494.933594h-8.53125v-136.535156h8.53125zm281.601562 0h-8.535156v-136.535156h8.535156zm93.867188-153.601563h-477.867188v-324.265625h85.332032v17.066406h-17.066407c-3.671875.003907-6.929687 2.351563-8.089843 5.835938l-8.53125 25.601562c-1.488282 4.472657.929687 9.304688 5.398437 10.792969.867187.289063 1.777344.4375 2.691406.4375h68.265625c4.714844-.003906 8.53125-3.828125 8.527344-8.539062 0-.914063-.148438-1.824219-.4375-2.691407l-8.535156-25.601562c-1.160156-3.480469-4.417969-5.832031-8.089844-5.835938h-17.066406v-17.066406h128v17.066406h-17.0625c-3.671875.003907-6.929688 2.351563-8.089844 5.835938l-8.535156 25.601562c-1.488282 4.472657.929687 9.304688 5.398437 10.792969.867188.289063 1.777344.4375 2.691407.4375h68.265624c4.714844-.003906 8.53125-3.828125 8.527344-8.539062 0-.914063-.148437-1.824219-.4375-2.691407l-8.535156-25.601562c-1.160156-3.480469-4.417969-5.832031-8.089844-5.835938h-17.066406v-17.066406h128v17.066406h-17.066406c-3.667969.003907-6.925782 2.351563-8.085938 5.835938l-8.535156 25.601562c-1.488281 4.472657.929688 9.304688 5.398438 10.792969.867187.289063 1.777343.4375 2.691406.4375h68.265625c4.714843-.003906 8.53125-3.828125 8.527343-8.539062 0-.914063-.148437-1.824219-.4375-2.691407l-8.53125-25.601562c-1.160156-3.480469-4.417968-5.832031-8.089843-5.835938h-17.066407v-17.066406h85.332032zm-364.554688-290.132812 2.84375 8.535156h-44.578125l2.839844-8.535156zm145.066406 0 2.84375 8.535156h-44.578124l2.84375-8.535156zm145.066407 0 2.84375 8.535156h-44.578125l2.84375-8.535156zm0 0"/><path d="m25.601562 102.398438v221.867187c0 4.714844 3.820313 8.535156 8.53125 8.535156h443.734376c4.710937 0 8.53125-3.820312 8.53125-8.535156v-221.867187c0-4.710938-3.820313-8.53125-8.53125-8.53125h-443.734376c-4.710937 0-8.53125 3.820312-8.53125 8.53125zm17.066407 8.535156h426.664062v204.800781h-426.664062zm0 0"/><path d="m210.832031 156.101562c-3.332031-3.332031-8.734375-3.332031-12.066406 0l-34.132813 34.132813c-1.601562 1.597656-2.5 3.769531-2.5 6.03125v68.265625c0 4.714844 3.820313 8.535156 8.53125 8.535156 4.714844 0 8.535157-3.820312 8.535157-8.535156v-25.597656h51.199219v25.597656c0 4.714844 3.820312 8.535156 8.535156 8.535156 4.710937 0 8.53125-3.820312 8.53125-8.535156v-68.265625c0-2.261719-.898438-4.433594-2.5-6.03125zm-31.632812 65.765626v-22.066407l25.601562-25.601562 25.601563 25.601562v22.066407zm0 0"/><path d="m307.199219 153.597656h-34.132813c-4.714844 0-8.535156 3.820313-8.535156 8.535156v102.398438c0 4.714844 3.820312 8.535156 8.535156 8.535156h34.132813c23.554687-.027344 42.640625-19.113281 42.667969-42.667968v-34.132813c-.027344-23.550781-19.113282-42.636719-42.667969-42.667969zm25.601562 76.800782c0 14.140624-11.460937 25.601562-25.601562 25.601562h-25.601563v-85.332031h25.601563c14.140625 0 25.601562 11.460937 25.601562 25.597656zm0 0"/><path d="m34.132812 375.464844c-19.140624 0-34.132812 22.496094-34.132812 51.203125 0 24.269531 10.726562 44.03125 25.601562 49.585937v27.210938c0 4.714844 3.820313 8.535156 8.53125 8.535156 4.714844 0 8.535157-3.820312 8.535157-8.535156v-27.210938c14.871093-5.554687 25.597656-25.316406 25.597656-49.585937 0-28.707031-14.992187-51.203125-34.132813-51.203125zm8.535157 80.121094v-20.386719c0-4.714844-3.820313-8.535157-8.535157-8.535157-4.710937 0-8.53125 3.820313-8.53125 8.535157v20.386719c-5.925781-8.449219-8.921874-18.605469-8.535156-28.921876 0-19.539062 9.011719-34.132812 17.066406-34.132812 8.054688 0 17.066407 14.59375 17.066407 34.132812.386719 10.316407-2.609375 20.472657-8.53125 28.921876zm0 0"/><path d="m477.867188 375.464844c-19.140626 0-34.132813 22.496094-34.132813 51.203125 0 24.269531 10.726563 44.03125 25.597656 49.585937v27.210938c0 4.714844 3.820313 8.535156 8.535157 8.535156 4.710937 0 8.53125-3.820312 8.53125-8.535156v-27.210938c14.875-5.554687 25.601562-25.316406 25.601562-49.585937 0-28.707031-14.992188-51.203125-34.132812-51.203125zm8.53125 80.121094v-20.386719c0-4.714844-3.820313-8.535157-8.53125-8.535157-4.714844 0-8.535157 3.820313-8.535157 8.535157v20.386719c-5.921875-8.449219-8.917969-18.605469-8.53125-28.921876 0-19.539062 9.011719-34.132812 17.066407-34.132812 8.054687 0 17.066406 14.59375 17.066406 34.132812.386718 10.316407-2.609375 20.472657-8.535156 28.921876zm0 0"/></svg>