<?xml version="1.0" encoding="iso-8859-1"?>
<!-- Generator: Adobe Illustrator 19.0.0, SVG Export Plug-In . SVG Version: 6.00 Build 0)  -->
<svg version="1.1" id="Capa_1" xmlns="http://www.w3.org/2000/svg" xmlns:xlink="http://www.w3.org/1999/xlink" x="0px" y="0px"
	 viewBox="0 0 512 512" style="enable-background:new 0 0 512 512;" xml:space="preserve">
<g>
	<g>
		<path d="M433.581,203.525v-30.702V55.304c0-16.492-7.274-31.994-19.958-42.532c-12.684-10.539-29.257-14.844-45.47-11.827
			c-0.198,0.037-0.396,0.08-0.592,0.13c-0.838,0.209-84.121,20.944-111.562,20.944c-27.429,0-110.723-20.735-111.56-20.944
			c-0.196-0.05-0.394-0.093-0.593-0.13c-16.211-3.022-32.784,1.288-45.469,11.826c-12.684,10.539-19.959,26.04-19.959,42.534
			v120.705v27.516C27.35,219.502,0.406,241.244,0.406,266.628c0,25.463,27.307,47.393,78.971,63.417
			c47.319,14.677,110.045,22.76,176.623,22.76s129.305-8.083,176.624-22.76c51.663-16.024,78.971-37.953,78.971-63.417
			C511.594,241.244,484.649,219.502,433.581,203.525z M98.419,152.815c43.544,10.403,96.943,16.082,152.086,16.082
			c33.432,0,65.89-2.024,96.472-6.016c5.476-0.715,9.336-5.734,8.621-11.21c-0.715-5.477-5.734-9.346-11.21-8.622
			c-29.727,3.88-61.314,5.848-93.883,5.848c-55.636,0-109.261-5.903-152.086-16.676V55.304c-0.001-10.528,4.643-20.423,12.739-27.15
			c8.023-6.665,18.483-9.43,28.745-7.598C146.48,22.193,226.734,42.019,256,42.019c29.265,0,109.519-19.825,116.096-21.463
			c10.26-1.83,20.722,0.932,28.745,7.598c8.097,6.726,12.739,16.622,12.739,27.149V165.35
			c-44.493,12.667-102.017,19.613-163.076,19.613c-55.639,0-109.264-5.903-152.086-16.675V152.815z M98.418,210.948v-22.063
			c43.539,10.402,96.941,16.079,152.086,16.079c60.387,0,117.649-6.658,163.076-18.857v15.519
			c-43.5,11.473-98.862,17.781-156.375,17.781c-32.576,0-64.164-1.968-93.883-5.848c-5.478-0.725-10.495,3.145-11.21,8.621
			c-0.715,5.477,3.145,10.496,8.621,11.211c30.574,3.991,63.032,6.016,96.472,6.016c56.97,0,112.077-6.06,156.375-17.129v12.669
			c-44.49,12.665-102.019,19.605-163.076,19.605c-55.638,0-109.265-5.898-152.086-16.671V210.948z M426.699,310.942
			C381.245,325.041,320.623,332.804,256,332.804s-125.245-7.764-170.698-21.862c-40.028-12.416-64.896-29.396-64.896-44.313
			c0-14.169,21.897-29.858,58.013-42.072v21.041c0,1.973,0.578,3.838,1.592,5.413c1.304,2.024,3.329,3.567,5.775,4.235
			c28.51,7.781,62.053,13.378,97.996,16.481c3.594,0.31,7.212,0.595,10.852,0.856c7.279,0.52,14.644,0.939,22.074,1.255
			c11.144,0.474,22.433,0.715,33.796,0.715c66.279,0,128.792-8.02,176.022-22.583c4.193-1.292,7.054-5.168,7.054-9.556v-17.856
			c36.116,12.214,58.014,27.903,58.014,42.072C491.593,281.546,466.727,298.526,426.699,310.942z"/>
	</g>
</g>
<g>
	<g>
		<path d="M395.089,144.457c-0.13-0.641-0.319-1.271-0.569-1.88c-0.25-0.601-0.561-1.181-0.921-1.721
			c-0.359-0.55-0.779-1.06-1.239-1.52c-0.46-0.46-0.971-0.88-1.521-1.24c-0.54-0.359-1.12-0.67-1.729-0.92
			c-0.601-0.25-1.23-0.45-1.87-0.57c-3.25-0.659-6.7,0.41-9.02,2.73c-0.46,0.46-0.88,0.97-1.239,1.52
			c-0.36,0.54-0.67,1.12-0.92,1.721c-0.25,0.609-0.45,1.239-0.58,1.88c-0.131,0.64-0.19,1.3-0.19,1.95
			c0,0.649,0.06,1.309,0.19,1.949c0.13,0.64,0.33,1.27,0.58,1.87c0.25,0.61,0.56,1.19,0.92,1.73c0.359,0.55,0.779,1.059,1.239,1.52
			c0.46,0.46,0.971,0.88,1.52,1.25c0.54,0.351,1.12,0.66,1.72,0.91c0.61,0.25,1.24,0.441,1.88,0.57c0.641,0.13,1.3,0.2,1.95,0.2
			s1.31-0.07,1.95-0.2c0.64-0.13,1.27-0.32,1.87-0.57c0.609-0.25,1.189-0.559,1.729-0.91c0.55-0.37,1.06-0.79,1.521-1.25
			c0.46-0.46,0.88-0.97,1.239-1.52c0.36-0.54,0.671-1.12,0.921-1.73c0.25-0.6,0.439-1.23,0.569-1.87s0.2-1.3,0.2-1.949
			C395.289,145.757,395.219,145.096,395.089,144.457z"/>
	</g>
</g>
<g>
	<g>
		<path d="M132.23,214.967c-0.133-0.64-0.322-1.27-0.572-1.87c-0.25-0.609-0.561-1.189-0.92-1.73c-0.37-0.551-0.79-1.061-1.25-1.52
			c-0.46-0.46-0.97-0.88-1.521-1.24c-0.54-0.369-1.12-0.67-1.72-0.92c-0.61-0.25-1.24-0.449-1.87-0.569
			c-1.29-0.261-2.62-0.261-3.91,0c-0.64,0.12-1.27,0.319-1.87,0.569c-0.609,0.25-1.189,0.551-1.729,0.92
			c-0.55,0.36-1.06,0.78-1.521,1.24c-0.46,0.46-0.88,0.97-1.239,1.52c-0.36,0.54-0.67,1.12-0.92,1.73
			c-0.25,0.601-0.44,1.23-0.57,1.87c-0.13,0.64-0.2,1.3-0.2,1.95c0,2.63,1.07,5.21,2.93,7.07c0.461,0.46,0.971,0.88,1.521,1.239
			c0.54,0.36,1.12,0.67,1.729,0.92c0.601,0.25,1.231,0.45,1.87,0.57c0.641,0.13,1.301,0.2,1.95,0.2c0.65,0,1.311-0.07,1.95-0.2
			c0.64-0.12,1.269-0.32,1.88-0.57c0.6-0.25,1.18-0.56,1.72-0.92c0.551-0.359,1.061-0.779,1.521-1.239
			c1.859-1.86,2.93-4.44,2.93-7.07C132.419,216.267,132.359,215.606,132.23,214.967z"/>
	</g>
</g>
<g>
	<g>
		<path d="M403.835,379.999h-295.67c-23.986,0-43.5,19.514-43.5,43.5V466.5c0,25.089,20.411,45.5,45.5,45.5h64.81
			c40.193,0,72.893-32.699,72.893-72.893v-39.108h16.267v39.108c0,40.193,32.698,72.893,72.892,72.893h64.811
			c25.089,0,45.501-20.411,45.501-45.5v-43.001C447.336,399.513,427.821,379.999,403.835,379.999z M174.974,492h-64.81
			c-14.061,0-25.5-11.439-25.5-25.5v-43.001c0-12.958,10.542-23.5,23.5-23.5h119.701v39.108h0.001
			C227.866,468.272,204.139,492,174.974,492z M401.835,492h-64.811c-29.164,0-52.892-23.728-52.892-52.893v-39.108h119.701
			c12.958,0,23.5,10.542,23.5,23.5V466.5h0.001C427.336,480.561,415.896,492,401.835,492z"/>
	</g>
</g>
<g>
	<g>
		<path d="M145.684,410.211c-3.904-3.904-10.235-3.904-14.141,0l-32.334,32.334c-3.905,3.905-3.904,10.237,0.001,14.143
			c1.952,1.952,4.512,2.929,7.07,2.929c2.56,0,5.119-0.977,7.071-2.929l32.334-32.334
			C149.59,420.449,149.589,414.117,145.684,410.211z"/>
	</g>
</g>
<g>
	<g>
		<path d="M348.071,410.211c-3.904-3.904-10.236-3.904-14.142,0l-32.333,32.334c-3.905,3.905-3.905,10.237,0,14.143
			c1.953,1.952,4.512,2.929,7.071,2.929s5.118-0.977,7.071-2.929l32.333-32.334C351.976,420.449,351.976,414.117,348.071,410.211z"
			/>
	</g>
</g>
<g>
</g>
<g>
</g>
<g>
</g>
<g>
</g>
<g>
</g>
<g>
</g>
<g>
</g>
<g>
</g>
<g>
</g>
<g>
</g>
<g>
</g>
<g>
</g>
<g>
</g>
<g>
</g>
<g>
</g>
</svg>
