<?xml version="1.0" encoding="utf-8"?><svg xmlns="http://www.w3.org/2000/svg" xmlns:xlink="http://www.w3.org/1999/xlink"><symbol viewBox="0 0 480 480" id="advantages_icons--24-hours" xmlns="http://www.w3.org/2000/svg"><path d="M472 432h-24V280a8 8 0 0 0-14.552-4.584l-112 160A7.999 7.999 0 0 0 328 448h104v24a8 8 0 0 0 16 0v-24h24a8 8 0 0 0 0-16zm-40 0h-88.64L432 305.376V432z"/><path d="M328 464h-94.712l88.056-103.688c.2-.238.387-.486.56-.744 16.566-24.518 11.048-57.713-12.56-75.552-28.705-20.625-68.695-14.074-89.319 14.631A63.997 63.997 0 0 0 208 336a8 8 0 0 0 16 0c-.003-26.51 21.486-48.002 47.995-48.005A47.999 47.999 0 0 1 300 297.008c16.537 12.671 20.388 36.007 8.8 53.32l-98.896 116.496A8 8 0 0 0 216 480h112a8 8 0 0 0 0-16z"/><path d="M216.176 424.152a8 8 0 0 0-7.693-8.296h-.003C104.11 411.982 20.341 328.363 16.28 224H48a8 8 0 0 0 0-16H16.28C20.283 103.821 103.82 20.287 208 16.288V40a8 8 0 0 0 16 0V16.288c102.754 3.974 185.686 85.34 191.616 188l-31.2-31.2a8 8 0 0 0-11.312 11.312l44.656 44.656a7.863 7.863 0 0 0 3.152 2.296c.313.094.631.172.952.232a7.914 7.914 0 0 0 1.696.408h.456a7.708 7.708 0 0 0 1.792-.352c.329-.04.655-.101.976-.184a7.88 7.88 0 0 0 2.888-1.808l45.264-45.248a8 8 0 0 0-11.312-11.312l-31.976 31.952C425.933 90.37 331.38.281 216.568.112 216.368.104 216.2 0 216 0s-.368.104-.568.112C96.582.275.275 96.582.112 215.432c0 .2-.112.368-.112.568s.104.368.112.568c.199 115.917 91.939 210.97 207.776 215.28h.296a8 8 0 0 0 7.992-7.696z"/><path d="M323.48 108.52a8 8 0 0 0-11.312 0L226.2 194.48a25.055 25.055 0 0 0-20.408 0l-40.704-40.704a8 8 0 0 0-11.312 11.312l40.624 40.624c-5.704 11.94-.648 26.244 11.293 31.947a23.96 23.96 0 0 0 27.275-4.683 23.737 23.737 0 0 0 4.624-27.256l85.888-85.888a8 8 0 0 0 0-11.312zM221.658 221.654l-.002.002a8.185 8.185 0 0 1-11.312 0 8 8 0 1 1 11.314-.002z"/></symbol><symbol viewBox="0 -13 512 512" id="advantages_icons--check_in" xmlns="http://www.w3.org/2000/svg"><path d="M298.668 85.332c0-23.562-19.102-42.664-42.668-42.664-23.563 0-42.668 19.102-42.668 42.664C213.332 108.898 232.438 128 256 128c23.555-.027 42.637-19.113 42.668-42.668zm-68.27 0c0-14.137 11.465-25.598 25.602-25.598 14.14 0 25.602 11.461 25.602 25.598 0 14.14-11.461 25.602-25.602 25.602-14.137 0-25.602-11.461-25.602-25.602zm0 0"/><path d="M486.398 93.867h-136.53C349.867 42.027 307.84 0 256 0s-93.867 42.027-93.867 93.867H25.602C11.46 93.867 0 105.328 0 119.465V460.8c0 14.137 11.46 25.597 25.602 25.597h460.796c14.141 0 25.602-11.46 25.602-25.597V119.465c0-14.137-11.46-25.598-25.602-25.598zm8.536 230.399H332.8a8.533 8.533 0 0 1-8.535-8.532v-51.199A8.534 8.534 0 0 1 332.8 256h162.133zm-8.536-213.332a8.533 8.533 0 0 1 8.536 8.53v51.204H323.09a206.193 206.193 0 0 0 24.906-59.734zM256 17.066c42.395.051 76.75 34.407 76.8 76.801 0 46.559-57.394 117.844-76.8 140.613-19.406-22.77-76.8-94.054-76.8-140.613.05-42.394 34.405-76.75 76.8-76.8zm-91.996 93.868c12.293 60.925 82.422 138.683 85.683 142.277 3.168 3.484 8.567 3.742 12.051.574.203-.183.395-.375.578-.574a571.257 571.257 0 0 0 50.22-65.477h182.398v51.2H332.8c-14.14 0-25.602 11.46-25.602 25.597v51.203c0 14.137 11.461 25.598 25.602 25.598h162.133V384H273.066c-14.136 0-25.597 11.46-25.597 25.598v59.734H204.8V324.035c0-14.137-11.461-25.597-25.602-25.597H17.066V256h76.801c14.137 0 25.598-11.46 25.598-25.602V110.934zm-138.402 0h76.796v119.464a8.533 8.533 0 0 1-8.53 8.536H17.065v-119.47c0-4.71 3.82-8.53 8.536-8.53zM17.066 460.8V315.504H179.2a8.533 8.533 0 0 1 8.535 8.531v145.297H25.602a8.533 8.533 0 0 1-8.536-8.531zm469.332 8.531H264.535v-59.73a8.533 8.533 0 0 1 8.531-8.536h221.868V460.8c0 4.71-3.82 8.531-8.536 8.531zm0 0"/></symbol><symbol viewBox="0 0 512.106 512.106" id="advantages_icons--dashboard" xmlns="http://www.w3.org/2000/svg"><path d="M127.686 37.216a12.578 12.578 0 0 0-16.486.128L76.853 68.081v-4.028c0-4.713-3.82-8.533-8.533-8.533s-8.533 3.82-8.533 8.533v19.311L45.561 96.096a8.534 8.534 0 0 0 11.383 12.715l62.575-56.013 62.575 56.013a8.534 8.534 0 1 0 11.383-12.715l-65.791-58.88zm43.034 82.304a8.533 8.533 0 0 0-8.533 8.533v59.733H76.853v-59.733c0-4.713-3.82-8.533-8.533-8.533s-8.533 3.82-8.533 8.533v65.152c.084 6.515 5.432 11.729 11.947 11.648h95.573c6.519.066 11.862-5.155 11.947-11.674v-65.126a8.535 8.535 0 0 0-8.534-8.533zm-51.2 102.4c-32.99 0-59.733 26.744-59.733 59.733s26.744 59.733 59.733 59.733 59.733-26.744 59.733-59.733c-.038-32.974-26.759-59.696-59.733-59.733zm-42.667 59.733c.026-20.268 14.281-37.731 34.133-41.813v36.975L79.413 295.75a42.071 42.071 0 0 1-2.56-14.097zm11.354 28.729l29.99-17.994 24.815 24.815c-17.433 11.63-40.755 8.727-54.805-6.821zm66.871-5.245l-27.025-27.017v-38.28a42.592 42.592 0 0 1 27.025 65.297zm305.775-151.484v-29.21c-.005-7.43-6.027-13.452-13.457-13.457H423.11c-7.43.005-13.452 6.027-13.457 13.457v29.21h-17.067v-53.504c-.009-8.149-6.613-14.753-14.763-14.763h-21.675c-8.148.01-14.752 6.614-14.762 14.763v53.504H324.32V59.786c0-9.426-7.641-17.067-17.067-17.067h-17.067c-9.426 0-17.067 7.641-17.067 17.067v93.867h-8.533a8.533 8.533 0 0 1-8.533-8.533V42.72a8.533 8.533 0 0 0-17.066 0v102.4c0 14.138 11.461 25.6 25.6 25.6h196.267a8.534 8.534 0 0 0-.001-17.067zm-153.6 0h-17.067V59.786h17.067v93.867zm68.267 0h-17.067v-51.2h17.067v51.2zm68.266 0H426.72v-25.6h17.067v25.6zm17.067 170.667H264.586a8.533 8.533 0 0 1-8.533-8.533v-13.534l28.1-28.1a8.712 8.712 0 0 1 12.066 0l10.001 10.001c9.997 9.994 26.202 9.994 36.198 0l35.601-35.601a8.712 8.712 0 0 1 12.066 0l10.001 10.01c10.008 9.966 26.19 9.966 36.198 0l30.601-30.601a8.533 8.533 0 0 0-.104-11.962 8.533 8.533 0 0 0-11.962-.104l-30.601 30.592a8.534 8.534 0 0 1-12.066 0l-10.001-10.001c-10.13-9.668-26.069-9.668-36.198 0l-35.601 35.601a8.534 8.534 0 0 1-12.066 0l-9.992-10.001c-10.132-9.669-26.075-9.669-36.207 0l-16.034 16.034v-64.734a8.533 8.533 0 0 0-17.066 0v102.4c0 14.138 11.461 25.6 25.6 25.6h196.267a8.534 8.534 0 0 0-.001-17.067z"/><path d="M512.053 396.46V47.37C513.24 22.556 494.19 1.43 469.386.053H42.72C17.916 1.431-1.134 22.557.053 47.37v349.09c-1.191 24.817 17.859 45.948 42.667 47.326h136.533v17.067H145.12c-18.851 0-34.133 15.282-34.133 34.133v8.533a8.533 8.533 0 0 0 8.533 8.533h273.067a8.533 8.533 0 0 0 8.533-8.533v-8.533c0-18.851-15.282-34.133-34.133-34.133h-34.133v-17.067h136.533c24.807-1.377 43.857-22.509 42.666-47.326zm-145.067 81.46c9.426 0 17.067 7.641 17.067 17.067h-256c0-9.426 7.641-17.067 17.067-17.067h221.866zM196.32 460.853v-17.067h119.467v17.067H196.32zm273.066-34.133H42.72c-15.361-1.41-26.754-14.877-25.6-30.259V375.52h477.867v20.941c1.154 15.382-10.239 28.849-25.601 30.259zm25.6-379.35v311.083H17.12V47.37c-1.154-15.381 10.24-28.845 25.6-30.251h426.667c15.359 1.406 26.754 14.87 25.599 30.251z"/></symbol><symbol viewBox="0 0 512 512" id="advantages_icons--data" xmlns="http://www.w3.org/2000/svg"><path d="M396.035 26h-.269c-5.523 0-10 4.477-10 10s4.477 10 10 10h.269c5.523 0 10-4.477 10-10s-4.477-10-10-10zM96.234 346h-.27c-5.523 0-10 4.477-10 10s4.477 10 10 10h.27c5.523 0 10-4.477 10-10s-4.477-10-10-10z"/><path d="M502 346h-6V56c0-16.542-13.458-30-30-30h-29.999c-5.523 0-10 4.477-10 10s4.477 10 10 10H466c5.513 0 9.999 4.486 10 10H36c0-5.514 4.486-10 10-10h321.036c5.523 0 10-4.477 10-10s-4.477-10-10-10H46c-16.542 0-30 13.458-30 30v290h-6c-5.523 0-10 4.477-10 10v20c0 16.542 13.458 30 30 30h256v40c0 26.26 45.276 40 90 40s90-13.739 90-40v-40h16c16.542 0 30-13.458 30-30v-20c0-5.523-4.478-10-10-10zM36 75.998h440v20H183.373a9.85 9.85 0 0 0-.986.05c-.151.015-.297.043-.446.064-.174.025-.348.045-.521.08-.169.034-.334.08-.5.122-.15.038-.301.071-.449.115-.164.05-.322.111-.483.169-.147.053-.295.101-.44.161-.151.063-.297.136-.444.206-.148.07-.297.135-.442.213-.142.076-.277.163-.415.245-.142.085-.286.165-.424.258-.152.102-.295.214-.441.324-.115.086-.233.166-.346.258-.256.21-.501.431-.735.664l-17.07 17.071H36v-40zM286 353.16h-73.469l-7.226-5.25a9.994 9.994 0 0 0-5.878-1.91h-74.462c-5.523 0-10 4.477-10 10s4.477 10 10 10h71.213l7.226 5.25a9.994 9.994 0 0 0 5.878 1.91H286V386H30c-5.514 0-10-4.486-10-10v-10h36c5.523 0 10-4.477 10-10s-4.477-10-10-10H36v-10.001h250v17.161zM446 446c0 5.804-24.53 20-70 20s-70-14.195-70-20v-15.176c2.907 1.682 6.109 3.255 9.603 4.703C331.898 442.281 353.348 446 376 446s44.102-3.72 60.397-10.474c3.493-1.448 6.696-3.02 9.603-4.703V446zm0-43.158c0 7.86-24.708 23.158-70 23.158s-70-15.298-70-23.158v-16.229c2.907 1.682 6.109 3.255 9.603 4.702 16.295 6.754 37.745 10.474 60.397 10.474s44.102-3.72 60.397-10.474c3.493-1.448 6.696-3.02 9.603-4.702v16.229zm0-44.21c0 7.86-24.708 23.158-70 23.158s-70-15.298-70-23.158v-16.229c2.907 1.682 6.109 3.255 9.603 4.703 16.295 6.754 37.745 10.474 60.397 10.474s44.102-3.72 60.397-10.474c3.493-1.448 6.696-3.02 9.603-4.703v16.229zm0-44.211c0 7.86-24.708 23.158-70 23.158s-70-15.298-70-23.158v-16.229c2.907 1.682 6.109 3.255 9.603 4.703 16.295 6.754 37.745 10.474 60.397 10.474s44.102-3.72 60.397-10.474c3.493-1.448 6.696-3.02 9.603-4.703v16.229zm0-44.211c0 7.86-24.708 23.158-70 23.158s-70-15.298-70-23.158v-16.229c2.907 1.682 6.109 3.255 9.603 4.703 16.295 6.754 37.745 10.474 60.397 10.474s44.102-3.72 60.397-10.474c3.493-1.448 6.696-3.021 9.603-4.703v16.229zm-70-21.052c-45.292 0-70-15.298-70-23.158 0-5.804 24.53-20 70-20s70 14.196 70 20c0 7.86-24.708 23.158-70 23.158zM376 186c-44.724 0-90 13.74-90 40v89.999H36v-180h127.373c2.652 0 5.196-1.054 7.071-2.929l17.071-17.072H476v200h-10V226c0-26.26-45.276-40-90-40zm100 149.999V346h-10v-10.001h10zM492 376c0 5.514-4.486 10-10 10h-16v-20h26v10z"/><path d="M60.769 85.999H60.5c-5.523 0-10 4.477-10 10s4.477 10 10 10h.269c5.523 0 10-4.477 10-10s-4.477-10-10-10zm40 0h-.269c-5.523 0-10 4.477-10 10s4.477 10 10 10h.269c5.523 0 10-4.477 10-10s-4.477-10-10-10zm40.001 0h-.27c-5.523 0-10 4.477-10 10s4.477 10 10 10h.27c5.523 0 10-4.477 10-10s-4.477-10-10-10zm80.849 104.999c-12.464-21.589-35.694-35-60.622-35-24.386 0-46.49 12.693-59.089 32.507l-4.38-7.585c-2.761-4.784-8.878-6.422-13.66-3.66-4.783 2.761-6.422 8.877-3.66 13.66l14.172 24.546c.013.023.029.044.043.067.125.212.258.417.397.617.036.052.069.106.106.157.057.079.116.155.175.231.044.058.091.113.137.17.072.09.142.182.217.27.016.019.03.039.047.058.139.159.286.308.434.458.047.047.09.098.138.144l.054.052c.09.087.186.165.279.248.131.116.261.233.397.342.057.046.114.092.173.137.068.052.14.098.209.148.117.084.234.169.354.248.126.083.255.162.385.239.04.024.078.05.117.073l.118.07c.062.035.127.064.19.097.121.064.242.128.366.187.144.069.291.133.439.196.071.03.14.061.211.089.062.024.122.05.185.073.67.25 1.37.426 2.089.528.041.006.082.018.122.023.037.005.075.003.112.007.382.045.767.076 1.158.076h.005l.012.001c.31 0 .617-.018.922-.047.051-.005.102-.014.153-.019l.06-.008a9.723 9.723 0 0 0 .711-.107c.032-.006.063-.008.095-.014l27.804-5.521c5.417-1.076 8.937-6.339 7.861-11.756a10 10 0 0 0-11.756-7.861l-8.49 1.686c9.202-12.774 24.171-20.827 40.588-20.827 17.806 0 34.398 9.58 43.302 25 2.761 4.782 8.877 6.421 13.66 3.66s6.422-8.877 3.66-13.66zm20.17 70.079l-14.171-24.546c-.046-.08-.101-.154-.149-.232-.105-.17-.209-.34-.323-.503-.023-.033-.044-.067-.067-.099-.061-.085-.129-.163-.193-.246-.105-.136-.208-.274-.319-.404-.033-.038-.063-.078-.097-.115-.086-.098-.178-.187-.266-.28-.093-.098-.184-.197-.28-.291-.045-.044-.088-.089-.134-.132-.103-.097-.213-.185-.32-.277-.085-.073-.168-.148-.255-.218-.058-.046-.114-.094-.173-.139-.11-.085-.226-.16-.34-.24-.089-.063-.176-.127-.267-.187-.067-.044-.132-.089-.201-.132-.107-.067-.219-.124-.329-.187-.107-.061-.213-.123-.322-.18-.068-.036-.135-.074-.204-.108-.099-.049-.201-.088-.301-.134a8.994 8.994 0 0 0-.416-.18c-.06-.024-.118-.052-.18-.075-.088-.033-.178-.058-.267-.088a10.075 10.075 0 0 0-.518-.166c-.051-.015-.1-.035-.151-.048l-.003-.001c-.076-.02-.155-.032-.232-.05a9.34 9.34 0 0 0-.557-.121c-.059-.011-.117-.026-.177-.036-.088-.015-.175-.021-.263-.033a10.58 10.58 0 0 0-.506-.059c-.068-.006-.135-.015-.203-.02-.109-.007-.218-.006-.327-.01-.14-.004-.279-.008-.42-.007-.077.001-.153-.002-.23 0-.131.004-.26.018-.391.027-.113.008-.225.015-.338.027-.083.009-.165.014-.248.025-.147.019-.291.049-.436.075-.07.012-.139.017-.209.031l-27.805 5.521c-5.417 1.076-8.937 6.339-7.861 11.756.945 4.76 5.123 8.055 9.798 8.055.646 0 1.301-.063 1.958-.193l8.49-1.686c-9.203 12.774-24.172 20.828-40.588 20.828-17.806 0-34.398-9.58-43.301-25-2.761-4.784-8.878-6.422-13.66-3.66-4.783 2.761-6.422 8.877-3.66 13.66 12.464 21.589 35.693 35 60.622 35 24.386 0 46.49-12.694 59.089-32.507l4.379 7.585a9.995 9.995 0 0 0 13.66 3.66c4.784-2.761 6.423-8.877 3.662-13.66z"/></symbol><symbol viewBox="0 0 512 512" id="advantages_icons--mobile_app" xmlns="http://www.w3.org/2000/svg"><path d="M486.398 136.535H307.2V42.668C307.172 19.113 288.086.028 264.535 0H42.668C19.113.027.028 19.113 0 42.668v426.664c.027 23.555 19.113 42.64 42.668 42.668h443.73C500.54 512 512 500.54 512 486.398V162.133c0-14.137-11.46-25.598-25.602-25.598zm-221.863 0V128c0-9.426-7.644-17.066-17.07-17.066H59.735c-9.426 0-17.067 7.64-17.067 17.066v85.332c0 9.426 7.64 17.066 17.066 17.066h128v34.137h-17.066c-9.426 0-17.066 7.64-17.066 17.067v85.332c0 9.425 7.64 17.066 17.066 17.066h17.066v42.668H17.066V85.332h273.067v51.203zm-51.203 0c-12.527.04-23.187 9.14-25.187 21.512L158.969 185.3l-29.196-29.2a8.532 8.532 0 0 0-12.082 0l-57.18 57.231h-.777V128h187.73v8.535zm-60.977 66.293c.06.059.067.145.125.207.063.059.188.11.266.188l10.121 10.109H84.641l39.093-39.125zm18.688-5.453l16.691-15.613v31.57H187zm16.691 169.559h-17.066v-85.332h17.066zM42.668 17.066h221.867c14.137 0 25.598 11.461 25.598 25.602v25.598H17.066V42.668c0-14.14 11.461-25.602 25.602-25.602zM17.066 469.332v-25.598h170.668v17.067h-76.8a8.533 8.533 0 1 0 0 17.066h76.8v8.531a25.313 25.313 0 0 0 1.57 8.536H42.669a25.607 25.607 0 0 1-25.602-25.602zm477.868 17.066a8.534 8.534 0 0 1-8.536 8.536H213.332a8.533 8.533 0 0 1-8.531-8.536V162.133a8.532 8.532 0 0 1 8.531-8.531h273.066a8.533 8.533 0 0 1 8.536 8.53zm0 0"/><path d="M238.934 264.535c4.71 0 8.53-3.824 8.53-8.535v-42.668h42.669a8.533 8.533 0 1 0 0-17.066h-42.668c-9.426 0-17.067 7.64-17.067 17.066V256c0 4.71 3.82 8.535 8.536 8.535zm0 0"/><path d="M317.168 200.063l-28.355 42.546-9.711-9.71a8.534 8.534 0 0 0-12.066 12.066l17.066 17.066a8.54 8.54 0 0 0 6.03 2.504h.856a8.544 8.544 0 0 0 6.254-3.758l34.133-51.199a8.537 8.537 0 0 0-6.547-13.254 8.542 8.542 0 0 0-7.652 3.781zm-78.234 158.335c4.71 0 8.53-3.82 8.53-8.53v-42.669h42.669a8.533 8.533 0 1 0 0-17.066h-42.668c-9.426 0-17.067 7.64-17.067 17.066v42.668c0 4.711 3.82 8.531 8.536 8.531zm0 0"/><path d="M317.168 293.93l-28.355 42.547-9.711-9.711a8.534 8.534 0 0 0-12.066 12.066l17.066 17.066a8.52 8.52 0 0 0 6.03 2.5c.282 0 .556 0 .856-.043a8.528 8.528 0 0 0 6.254-3.753l34.133-51.2a8.537 8.537 0 0 0-6.547-13.254 8.542 8.542 0 0 0-7.652 3.782zm-18.5 98.605a8.534 8.534 0 0 0-8.535-8.535h-42.668c-9.426 0-17.067 7.64-17.067 17.066v42.668a8.534 8.534 0 0 0 8.536 8.532c4.71 0 8.53-3.82 8.53-8.532v-42.668h42.669a8.533 8.533 0 0 0 8.535-8.53zm0 0"/><path d="M317.168 387.797l-28.355 42.547-9.711-9.711a8.534 8.534 0 0 0-12.066 12.066l17.066 17.067a8.52 8.52 0 0 0 6.03 2.5c.282 0 .556 0 .856-.043a8.528 8.528 0 0 0 6.254-3.754l34.133-51.2a8.537 8.537 0 0 0-6.547-13.254 8.542 8.542 0 0 0-7.652 3.782zm49.766-165.93h59.734c4.71 0 8.531-3.82 8.531-8.535 0-4.71-3.82-8.531-8.531-8.531h-59.734a8.533 8.533 0 1 0 0 17.066zM469.332 204.8h-8.531a8.533 8.533 0 1 0 0 17.067h8.531a8.534 8.534 0 1 0 0-17.066zm-68.266 42.665a8.534 8.534 0 0 0 8.536 8.535h34.132a8.533 8.533 0 0 0 0-17.066h-34.132a8.533 8.533 0 0 0-8.536 8.53zM366.934 256h8.53a8.534 8.534 0 1 0 0-17.066h-8.53a8.533 8.533 0 1 0 0 17.066zm0 59.734h59.734c4.71 0 8.531-3.82 8.531-8.535 0-4.71-3.82-8.531-8.531-8.531h-59.734a8.533 8.533 0 1 0 0 17.066zm102.398-17.066h-8.531a8.533 8.533 0 1 0 0 17.066h8.531a8.534 8.534 0 1 0 0-17.066zM443.734 332.8h-34.132a8.533 8.533 0 1 0 0 17.067h34.132a8.533 8.533 0 0 0 0-17.066zm-76.8 17.067h8.53a8.534 8.534 0 1 0 0-17.066h-8.53a8.533 8.533 0 1 0 0 17.066zm0 59.735h59.734c4.71 0 8.531-3.82 8.531-8.536 0-4.71-3.82-8.53-8.531-8.53h-59.734a8.533 8.533 0 1 0 0 17.066zm102.398-17.067h-8.531a8.533 8.533 0 1 0 0 17.067h8.531a8.534 8.534 0 1 0 0-17.067zm-25.598 34.133h-34.132a8.533 8.533 0 1 0 0 17.066h34.132a8.533 8.533 0 0 0 0-17.066zm-68.269 0h-8.531a8.533 8.533 0 1 0 0 17.066h8.53a8.534 8.534 0 1 0 0-17.066zm-256-375.468H128c4.71 0 8.535-3.821 8.535-8.532A8.536 8.536 0 0 0 128 34.133h-8.535a8.533 8.533 0 0 0-8.531 8.535c0 4.71 3.82 8.531 8.53 8.531zm42.668 0h25.601a8.533 8.533 0 0 0 8.532-8.532 8.533 8.533 0 0 0-8.532-8.535h-25.601a8.533 8.533 0 0 0-8.531 8.535c0 4.71 3.82 8.531 8.53 8.531zM85.332 315.734H128c4.71 0 8.535-3.82 8.535-8.535 0-4.71-3.824-8.531-8.535-8.531H85.332a8.532 8.532 0 0 0-8.531 8.531 8.533 8.533 0 0 0 8.531 8.535zm-29.437-15.617a4.9 4.9 0 0 0-1.454-.77 5.313 5.313 0 0 0-1.629-.511 6.962 6.962 0 0 0-3.234 0 5.234 5.234 0 0 0-1.621.512 6.78 6.78 0 0 0-1.543.77l-1.273 1.023a8.922 8.922 0 0 0-2.473 6.058 7.14 7.14 0 0 0 .68 3.242 9.814 9.814 0 0 0 1.793 2.817l1.273 1.023a6.51 6.51 0 0 0 1.543.77 5.132 5.132 0 0 0 1.621.511c.535.098 1.078.157 1.621.172a10.61 10.61 0 0 0 1.614-.171 5.209 5.209 0 0 0 1.628-.512 4.813 4.813 0 0 0 1.454-.77c.503-.34.937-.68 1.363-1.023a9.814 9.814 0 0 0 1.793-2.817 8.55 8.55 0 0 0 .683-3.242 8.988 8.988 0 0 0-2.476-6.058 20.94 20.94 0 0 0-1.363-1.024zm29.437-18.515H128c4.71 0 8.535-3.82 8.535-8.536 0-4.71-3.824-8.53-8.535-8.53H85.332a8.532 8.532 0 0 0-8.531 8.53 8.533 8.533 0 0 0 8.531 8.536zm-41.984-5.266a9.922 9.922 0 0 0 1.793 2.816l1.273 1.016c.477.324.996.582 1.543.773a5.523 5.523 0 0 0 1.621.512c.535.09 1.078.137 1.621.149a11.92 11.92 0 0 0 1.614-.172 5.775 5.775 0 0 0 1.628-.512 4.923 4.923 0 0 0 1.454-.777c.503-.332.937-.676 1.363-1.016a9.814 9.814 0 0 0 1.793-2.816 8.55 8.55 0 0 0 .683-3.243 8.97 8.97 0 0 0-2.476-6.058c-.426-.34-.852-.684-1.363-1.024a4.923 4.923 0 0 0-1.454-.777 4.941 4.941 0 0 0-1.629-.504 6.76 6.76 0 0 0-3.234 0 4.927 4.927 0 0 0-1.621.504 6.65 6.65 0 0 0-1.543.777l-1.273 1.024a8.915 8.915 0 0 0-2.473 6.058 7.162 7.162 0 0 0 .68 3.27zm41.984 73.531H128c4.71 0 8.535-3.82 8.535-8.535 0-4.71-3.824-8.531-8.535-8.531H85.332a8.532 8.532 0 0 0-8.531 8.531 8.533 8.533 0 0 0 8.531 8.535zm-29.437-15.59a4.923 4.923 0 0 0-1.454-.777 4.941 4.941 0 0 0-1.629-.504 6.663 6.663 0 0 0-3.234 0 4.927 4.927 0 0 0-1.621.504 6.65 6.65 0 0 0-1.543.777l-1.273 1.024a8.91 8.91 0 0 0-2.473 6.031 7.14 7.14 0 0 0 .68 3.242 9.814 9.814 0 0 0 1.793 2.817l1.273 1.015a6.65 6.65 0 0 0 1.543.778 5.523 5.523 0 0 0 1.621.511 11.17 11.17 0 0 0 1.621.172 11.17 11.17 0 0 0 1.614-.172 5.534 5.534 0 0 0 1.628-.511 4.923 4.923 0 0 0 1.454-.778 17.18 17.18 0 0 0 1.363-1.015 9.814 9.814 0 0 0 1.793-2.817 8.55 8.55 0 0 0 .683-3.242 8.97 8.97 0 0 0-2.476-6.059c-.426-.316-.86-.656-1.363-.996zM85.332 384H128c4.71 0 8.535-3.82 8.535-8.535 0-4.711-3.824-8.531-8.535-8.531H85.332a8.532 8.532 0 0 0-8.531 8.53A8.533 8.533 0 0 0 85.332 384zm-29.437-15.617a4.89 4.89 0 0 0-1.454-.766 5.109 5.109 0 0 0-1.629-.512 6.86 6.86 0 0 0-3.234 0 5.035 5.035 0 0 0-1.621.512 6.612 6.612 0 0 0-1.543.766l-1.273 1.023a8.93 8.93 0 0 0-2.473 6.059 7.166 7.166 0 0 0 .68 3.246 9.848 9.848 0 0 0 1.793 2.812l1.273 1.028c.477.32.996.578 1.543.765a5.035 5.035 0 0 0 1.621.512c.535.102 1.078.156 1.621.172.543-.016 1.082-.07 1.614-.172a5.109 5.109 0 0 0 1.628-.512 4.89 4.89 0 0 0 1.454-.765c.503-.344.937-.684 1.363-1.028a9.848 9.848 0 0 0 1.793-2.812 8.585 8.585 0 0 0 .683-3.246 8.988 8.988 0 0 0-2.476-6.059c-.426-.34-.86-.68-1.363-1.023zm0 0"/></symbol><symbol viewBox="0 0 512 512" id="advantages_icons--reports" xmlns="http://www.w3.org/2000/svg"><path d="M469.984.008H159.981c-5.523 0-10 4.478-10 10s4.477 10 10 10h274.247a41.736 41.736 0 0 0-6.242 21.999v130.982c0 5.522 4.477 10 10 10s10-4.478 10-10v-30.985h53.998c5.523 0 10-4.478 10-10V42.007c-.001-23.158-18.841-41.999-42-41.999zm22 121.996h-43.999V42.007c0-12.131 9.869-21.999 21.999-21.999s21.999 9.869 21.999 21.999v79.997zm9.088 285.52l-65.32-65.32c7.538-15.374 11.778-32.645 11.778-50.89 0-63.961-52.036-115.996-115.996-115.996s-115.996 52.035-115.996 115.996c0 14.623 2.727 28.62 7.688 41.518l-11.705 11.705-48.143-48.144a10.001 10.001 0 0 0-14.142 0l-11.255 11.255v-91.312c0-5.522-4.477-10-10-10s-10 4.478-10 10v111.312l-90.415 90.416c-3.905 3.905-3.905 10.237 0 14.143 1.953 1.952 4.512 2.929 7.071 2.929s5.119-.977 7.071-2.929l76.273-76.273v72.064H73.989c-5.523 0-10 4.478-10 10v31.999c0 23.158 18.84 41.999 41.999 41.999h299.998c23.159 0 42-18.841 42-42.001v-8.585c6.996 6.791 16.218 10.525 26.067 10.525l.188-.001c10.072-.049 19.533-3.991 26.643-11.101 14.748-14.751 14.833-38.664.188-53.309zM331.533 195.317c52.933 0 95.997 43.064 95.997 95.997s-43.064 95.997-95.997 95.997c-36.348 0-68.041-20.306-84.333-50.169l57.79-57.79v22.687c0 5.522 4.477 10 10 10s10-4.478 10-10v-47.992c0-5.522-4.477-10-10-10h-47.993c-5.523 0-10 4.478-10 10s4.477 10 10 10h25.015l-52.974 52.974a95.744 95.744 0 0 1-3.501-25.706c-.001-52.935 43.063-95.998 95.996-95.998zM105.987 491.993c-12.131-.001-21.999-9.87-21.999-22v-21.999h279.997v12c0 .327.018.65.049.969a10.01 10.01 0 0 0-.049.969v8.061a41.732 41.732 0 0 0 6.243 22.001H105.987zm321.999-22.003c0 12.133-9.87 22.002-22 22.002-12.132 0-22.001-9.87-22.001-22.001v-8.061c0-.327-.018-.65-.049-.969.031-.319.049-.642.049-.969v-21.999c0-5.522-4.477-10-10-10H137.981V335.93l18.325-18.325 48.143 48.144a10.001 10.001 0 0 0 14.142 0l13.982-13.982c20.41 33.288 57.134 55.542 98.96 55.542 18.157 0 35.352-4.198 50.669-11.668l45.784 45.784v28.565zm58.756-23.303c-3.358 3.358-7.833 5.221-12.599 5.243l-.089.001c-4.696 0-9.074-1.794-12.335-5.056l-61.876-61.876a116.996 116.996 0 0 0 25.237-25.185l61.85 61.85c6.847 6.848 6.763 18.074-.188 25.023z"/><path d="M394.846 281.315c-5.523 0-10 4.478-10 10 0 29.396-23.916 53.312-53.313 53.312-5.523 0-10 4.477-10 10 0 5.522 4.477 10 10 10 40.425 0 73.313-32.888 73.313-73.312 0-5.522-4.477-10-10-10zM256.118 172.003h-9.127v-66.998c0-5.522-4.477-10-10-10h-45.922c-5.523 0-10 4.478-10 10v66.998h-16.076V64.006c0-5.522-4.477-10-10-10h-43.999c-5.523 0-10 4.478-10 10v107.996H84.997v-43.999c0-5.522-4.477-10-10-10H30.999c-5.523 0-10 4.478-10 10v43.999H10c-5.523 0-10 4.478-10 10s4.477 10 10 10h246.119c5.523 0 10-4.478 10-10-.001-5.522-4.478-9.999-10.001-9.999zm-191.12 0H40.999v-33.999h23.999v33.999zm79.997 0h-23.999V74.006h23.999v97.997zm81.997 0H201.07v-56.998h25.922v56.998zM337.451 54.006h-77.459c-5.523 0-10 4.478-10 10s4.477 10 10 10h77.459c5.523 0 10-4.478 10-10-.001-5.522-4.477-10-10-10zm56.536 2.929a10.076 10.076 0 0 0-7.07-2.93c-2.63 0-5.21 1.069-7.07 2.93a10.077 10.077 0 0 0-2.93 7.07c0 2.63 1.07 5.21 2.93 7.069a10.077 10.077 0 0 0 7.07 2.931c2.63 0 5.21-1.07 7.07-2.931a10.072 10.072 0 0 0 2.93-7.069 10.08 10.08 0 0 0-2.93-7.07zm-95.266 41.07h-16.397c-5.523 0-10 4.478-10 10s4.477 10 10 10h16.397c5.523 0 10-4.478 10-10s-4.477-10-10-10zm88.194 0h-49.464c-5.523 0-10 4.478-10 10s4.477 10 10 10h49.464c5.523 0 10-4.478 10-10s-4.477-10-10-10zM17.079 442.694a10.077 10.077 0 0 0-7.07-2.931c-2.64 0-5.21 1.07-7.07 2.931a10.029 10.029 0 0 0-2.93 7.069c0 2.63 1.06 5.21 2.93 7.07 1.86 1.86 4.43 2.93 7.07 2.93 2.63 0 5.2-1.069 7.07-2.93 1.86-1.86 2.93-4.44 2.93-7.07 0-2.631-1.07-5.211-2.93-7.069z"/></symbol><symbol viewBox="0 0 372.96 372.96" id="counter_up--clock" xmlns="http://www.w3.org/2000/svg"><path d="M186.48 0C83.49 0 0 83.49 0 186.48s83.49 186.48 186.48 186.48 186.48-83.49 186.48-186.48C372.828 83.545 289.415.132 186.48 0zm8 356.56v-32.8a8 8 0 0 0-16 0v32.8C90.759 352.372 20.588 282.201 16.4 194.48h32.8a8 8 0 0 0 0-16H16.4C20.588 90.759 90.759 20.588 178.48 16.4v32.8a8 8 0 0 0 16 0V16.4c87.721 4.188 157.892 74.359 162.08 162.08h-32.8a8 8 0 0 0 0 16h32.88c-4.191 87.75-74.408 157.932-162.16 162.08z"/><path d="M270.88 260.88l-76.4-77.68v-80.72a8 8 0 0 0-16 0v84a8 8 0 0 0 2.32 5.6l78.64 80a8.005 8.005 0 1 0 11.44-11.2z"/></symbol><symbol viewBox="0 0 480 480" id="counter_up--result" xmlns="http://www.w3.org/2000/svg"><path d="M416.004 32H312V8a7.998 7.998 0 0 0-7.996-8H176a7.998 7.998 0 0 0-8 7.996V32H64a7.998 7.998 0 0 0-8 7.996V472a7.998 7.998 0 0 0 7.996 8H416a7.998 7.998 0 0 0 8-7.996V40a7.998 7.998 0 0 0-7.996-8zM184 16h112v48H184V16zm224 448H72V48h96v24a7.998 7.998 0 0 0 7.996 8H304a7.998 7.998 0 0 0 8-7.996V48h96v416z"/><path d="M88 368h176v16H88zm192 0h112v16H280zM88 400h304v16H88zm0 32h128v16H88zm144 0h160v16H232zm-87.996-200H96a7.998 7.998 0 0 0-8 7.996V344a7.998 7.998 0 0 0 7.996 8H144a7.998 7.998 0 0 0 8-7.996V240a7.998 7.998 0 0 0-7.996-8zM136 336h-32v-88h32v88zm88.004-136H176a7.998 7.998 0 0 0-8 7.996V344a7.998 7.998 0 0 0 7.996 8H224a7.998 7.998 0 0 0 8-7.996V208a7.998 7.998 0 0 0-7.996-8zM216 336h-32V216h32v120zm88.004-168H256a7.998 7.998 0 0 0-8 7.996V344a7.998 7.998 0 0 0 7.996 8H304a7.998 7.998 0 0 0 8-7.996V176a7.998 7.998 0 0 0-7.996-8zM296 336h-32V184h32v152zm88.004-200H336a7.998 7.998 0 0 0-8 7.996V344a7.998 7.998 0 0 0 7.996 8H384a7.998 7.998 0 0 0 8-7.996V144a7.998 7.998 0 0 0-7.996-8zM376 336h-32V152h32v184zm6.43-255.844l-80 16a8.006 8.006 0 0 0-2.867 1.188L229.578 144H160a7.972 7.972 0 0 0-4.238 1.219l-64 40 8.477 13.563L162.293 160H232a8.014 8.014 0 0 0 4.438-1.344l70.684-47.125 78.449-15.688-3.141-15.687z"/></symbol><symbol viewBox="0 0 512 512" id="counter_up--team" xmlns="http://www.w3.org/2000/svg"><path d="M451.72 237.26c-17.422-8.71-50.087-8.811-51.469-8.811a7.5 7.5 0 0 0 0 15c8.429.001 32.902 1.299 44.761 7.228a7.502 7.502 0 0 0 6.708-13.417z"/><path d="M489.112 344.041l-30.975-8.85a3.145 3.145 0 0 1-2.271-3.011v-10.339a56.368 56.368 0 0 0 7.171-5.881c10.89-10.568 16.887-24.743 16.887-39.915v-14.267l2.995-5.989a47.846 47.846 0 0 0 5.024-21.286v-38.65a7.5 7.5 0 0 0-7.5-7.5H408.27c-26.244 0-47.596 21.352-47.596 47.596v.447a39.78 39.78 0 0 0 4.178 17.699l3.841 7.682v12.25c0 19.414 9.567 36.833 24.058 47.315l.002 10.836c0 1.671 0 2.363-6.193 4.133l-15.114 4.318-43.721-15.898a7.491 7.491 0 0 0-2.044-5.742l-13.971-14.678v-24.64a90.427 90.427 0 0 0 4.344-3.789c17.625-16.52 27.733-39.844 27.733-63.991v-19.678c5.322-11.581 8.019-23.836 8.019-36.457v-80.19a7.5 7.5 0 0 0-7.5-7.5H232.037c-39.51 0-71.653 32.144-71.653 71.653v16.039c0 12.621 2.697 24.876 8.019 36.457v16.931c0 28.036 12.466 53.294 32.077 69.946v25.22l-13.971 14.678a7.491 7.491 0 0 0-2.044 5.742l-46.145 16.779a39.33 39.33 0 0 0-9.272 4.858l-7.246-3.623c21.57-9.389 28.403-22.594 28.731-23.25a7.498 7.498 0 0 0 0-6.708c-5.407-10.814-6.062-30.635-6.588-46.561-.175-5.302-.341-10.311-.658-14.771-2.557-35.974-29.905-63.103-63.615-63.103s-61.059 27.128-63.615 63.103c-.317 4.461-.483 9.47-.658 14.773-.526 15.925-1.182 35.744-6.588 46.558a7.498 7.498 0 0 0 0 6.708c.328.656 7.147 13.834 28.76 23.234l-20.127 10.063C6.684 358.176 0 368.991 0 381.02v55.409a7.5 7.5 0 0 0 15 0V381.02c0-6.312 3.507-11.987 9.152-14.81l25.063-12.531 8.718 8.285a31.466 31.466 0 0 0 21.739 8.688 31.475 31.475 0 0 0 21.739-8.688l8.717-8.284 8.172 4.086c-3.848 6.157-6.032 13.377-6.032 20.94v57.725a7.5 7.5 0 0 0 15 0v-57.725c0-10.296 6.501-19.578 16.178-23.097l48.652-17.691 20.253 30.381a15.462 15.462 0 0 0 11.383 6.835 15.458 15.458 0 0 0 12.504-4.47l12.356-12.356v78.124a7.5 7.5 0 0 0 15 0v-78.124l12.356 12.356a15.452 15.452 0 0 0 10.957 4.547c.513 0 1.029-.025 1.546-.076a15.462 15.462 0 0 0 11.384-6.835l20.254-30.38 48.651 17.691c9.676 3.519 16.178 12.801 16.178 23.097v57.725a7.5 7.5 0 0 0 15 0v-57.725c0-10.428-4.143-20.208-11.093-27.441l1.853-.529c1.869-.534 4.419-1.265 6.979-2.52l19.149 19.149v69.066a7.5 7.5 0 0 0 15 0v-69.066l19.016-19.016c1.011.514 2.073.948 3.191 1.267l30.976 8.85c7.07 2.02 12.009 8.567 12.009 15.921v62.044a7.5 7.5 0 0 0 15 0v-62.044c0-14.018-9.412-26.497-22.888-30.348zM48.115 330.794c-14.029-5.048-21.066-11.778-24.07-15.453 2.048-5.354 3.376-11.486 4.275-17.959 4.136 9.917 11.063 18.383 19.795 24.423v8.989zm42.965 20.298c-6.397 6.078-16.418 6.077-22.813-.001l-6.975-6.628a15.518 15.518 0 0 0 1.824-7.324v-7.994a55.427 55.427 0 0 0 16.558 2.517c5.757 0 11.316-.886 16.557-2.512l-.001 7.988c0 2.62.646 5.121 1.824 7.327l-6.974 6.627zm-11.404-34.43c-22.396 0-40.615-18.22-40.615-40.615a7.5 7.5 0 0 0-7.5-7.5c-.42 0-.83.043-1.231.11l.065-1.93c.167-5.157.328-10.028.625-14.206.958-13.476 6.343-25.894 15.163-34.968 8.899-9.156 20.793-14.198 33.491-14.198s24.591 5.042 33.491 14.198c8.82 9.074 14.205 21.492 15.163 34.968.296 4.177.458 9.047.628 14.203l.045 1.338c-8.16-12.572-20.762-21.837-37.045-27.069-15.043-4.833-27.981-4.534-28.527-4.52a7.5 7.5 0 0 0-5.191 2.291l-13.532 14.034a7.5 7.5 0 1 0 10.798 10.412l11.26-11.677c9.697.474 40.894 4.102 53.027 30.819-3.053 19.688-19.975 34.31-40.115 34.31zm31.553 14.157l.001-8.945a55.477 55.477 0 0 0 19.801-24.449c.899 6.458 2.226 12.576 4.27 17.918-2.987 3.64-10.057 10.43-24.072 15.476zm72.174-121.674v-18.608a7.501 7.501 0 0 0-.746-3.261c-4.826-9.994-7.273-20.598-7.273-31.518V139.72c0-31.239 25.415-56.653 56.653-56.653h104.769v72.692c0 10.92-2.447 21.524-7.273 31.518a7.501 7.501 0 0 0-.746 3.261v21.355c0 20.311-8.165 39.15-22.991 53.047a74.636 74.636 0 0 1-5.758 4.875c-.044.03-.086.063-.129.094-13.889 10.545-30.901 15.67-48.667 14.519-38.041-2.463-67.839-35.531-67.839-75.283zm42.229 150.911c-.052.052-.173.175-.418.149a.477.477 0 0 1-.381-.229l-23.325-34.988 7.506-7.887 35.385 24.187-18.767 18.768zm30.463-28.943l-40.615-27.762v-14c10.509 5.681 22.276 9.234 34.791 10.044 1.977.128 3.942.191 5.901.191 14.341 0 28.143-3.428 40.538-9.935v13.7l-40.615 27.762zm31.262 28.865a.477.477 0 0 1-.381.229c-.245.031-.365-.098-.418-.149l-18.767-18.767 35.385-24.188 7.507 7.887-23.326 34.988zm136.951-6.328l-17.02-17.019c.297-1.349.465-2.826.464-4.455l-.001-3.165a52.589 52.589 0 0 0 16.579 2.65 55.71 55.71 0 0 0 16.536-2.501v3.02c0 1.496.188 2.962.542 4.371l-17.1 17.099zm28.283-48.454c-7.949 7.714-18.45 11.788-29.537 11.446-21.704-.651-39.361-19.768-39.361-42.613v-14.021a7.493 7.493 0 0 0-.792-3.354l-4.633-9.266a24.706 24.706 0 0 1-2.594-10.991v-.447c0-17.974 14.623-32.596 32.596-32.596h64.673v31.15a32.77 32.77 0 0 1-3.441 14.578l-3.786 7.572a7.496 7.496 0 0 0-.792 3.354v16.038c0 11.08-4.38 21.432-12.333 29.15z"/><path d="M472.423 380.814a7.5 7.5 0 0 0-7.5 7.5v48.115a7.5 7.5 0 0 0 15 0v-48.115a7.5 7.5 0 0 0-7.5-7.5zm-432.846 9.914a7.5 7.5 0 0 0-7.5 7.5v38.201a7.5 7.5 0 0 0 15 0v-38.201a7.5 7.5 0 0 0-7.5-7.5zm277.955-232.253c-28.366-28.366-87.715-22.943-111.917-19.295-7.623 1.149-13.155 7.6-13.155 15.339v17.278a7.5 7.5 0 0 0 15 0v-17.279c0-.255.168-.473.392-.507 9.667-1.457 28.85-3.705 48.725-2.38 23.388 1.557 40.328 7.428 50.349 17.45a7.5 7.5 0 0 0 10.606 0 7.5 7.5 0 0 0 0-10.606zM167.884 396.853a7.5 7.5 0 0 0-7.5 7.5v32.077a7.5 7.5 0 0 0 15 0v-32.077a7.5 7.5 0 0 0-7.5-7.5zm176.422 0a7.5 7.5 0 0 0-7.5 7.5v32.077a7.5 7.5 0 0 0 15 0v-32.077a7.5 7.5 0 0 0-7.5-7.5z"/></symbol><symbol viewBox="0 0 418.633 418.633" id="counter_up--two-polaroid-pictures" xmlns="http://www.w3.org/2000/svg"><path d="M402.875 111.836L295.633 93.635l-11.376-88.4A6.003 6.003 0 0 0 277.539.05L15.996 33.709a6.001 6.001 0 0 0-5.185 6.717l38.178 296.65a6 6 0 0 0 6.717 5.185l35.271-4.539-5.054 29.778a6 6 0 0 0 4.912 6.918l259.982 44.131a5.993 5.993 0 0 0 4.477-1.023 5.995 5.995 0 0 0 2.443-3.889l50.051-294.881a6.003 6.003 0 0 0-4.913-6.92zM60.125 329.594L23.479 44.846l249.642-32.129 10.144 78.818-20.165-3.423-6.119-47.543a6.001 6.001 0 0 0-6.716-5.186L51.329 60.985a6 6 0 0 0-5.185 6.717l25.602 198.935a6 6 0 0 0 6.716 5.185l24.229-3.119-9.615 56.65-32.951 4.241zm44.665-73.26l-21.909 2.82L58.812 72.121l187.034-24.07 4.885 37.961-107.839-18.303a5.991 5.991 0 0 0-4.477 1.021 6.004 6.004 0 0 0-2.443 3.889L104.79 256.334zm242.119 149.379L98.757 363.592l48.042-283.049 248.152 42.119-48.042 283.051z"/><path d="M133.156 313.686l197.748 33.565a6.007 6.007 0 0 0 4.477-1.021 6.004 6.004 0 0 0 2.443-3.889l33.564-197.748a6.001 6.001 0 0 0-4.912-6.92l-197.749-33.566a6.002 6.002 0 0 0-6.92 4.912l-33.563 197.748a6 6 0 0 0 4.912 6.919zm39.479-196.744l185.917 31.557-31.556 185.918-185.917-31.557 31.556-185.918z"/></symbol><symbol viewBox="0 0 707.877 707.877" id="icons--android-social-outlined-logo" xmlns="http://www.w3.org/2000/svg"><path d="M462.215 63.628L482.443 33.3c3.199-4.768 4.357-10.526 3.215-16.178-1.128-5.621-4.372-10.465-9.14-13.664-9.566-6.397-23.489-3.564-29.826 5.956L422.35 45.928c-43.612-14.09-93.21-14.09-136.807 0L261.2 9.43C254.863-.091 241.123-3 231.343 3.474c-9.84 6.596-12.491 19.955-5.925 29.78l20.26 30.405c-50.025 29.476-81.497 80.476-81.497 134.02 0 8.409 6.825 15.233 15.233 15.233h350.358c8.409 0 15.233-6.824 15.233-15.233.001-53.285-31.988-104.316-82.79-134.051zM195.729 182.446c5.88-41.388 35.355-79.318 78.419-99.365a15.342 15.342 0 0 0 4.859-3.595c1.935.122 4.006-.274 5.941-1.021 43.368-16.802 94.643-16.802 137.996 0 1.949.747 3.96 1.127 5.94 1.021a15.187 15.187 0 0 0 4.859 3.595c43.733 20.351 73.667 58.281 79.699 99.365H195.729zm333.542 45.699H178.607c-8.409 0-15.233 6.824-15.233 15.233v282.267c0 30.268 24.616 54.899 54.884 54.899h11.897v74.535c0 29.11 23.688 52.798 52.813 52.798 29.125 0 52.828-23.688 52.828-52.798v-74.535h36.315v74.535c0 29.11 23.688 52.798 52.812 52.798 29.126 0 52.813-23.688 52.813-52.798v-74.535h11.896c30.268 0 54.885-24.632 54.885-54.899V243.377c-.014-8.423-6.838-15.232-15.246-15.232zm-15.234 297.5c0 13.481-10.952 24.434-24.419 24.434h-28.622a15.223 15.223 0 0 0-12.187 6.094 15.18 15.18 0 0 0-2.438 13.404c.594 2.042.898 4.098.898 6.154v79.333c0 12.324-10.022 22.332-22.347 22.332-12.323 0-22.347-10.008-22.347-22.332V575.73c0-2.041.29-4.128.899-6.154 1.34-4.6.441-9.581-2.438-13.404a15.223 15.223 0 0 0-12.187-6.094H319.07a15.23 15.23 0 0 0-12.171 6.062 15.277 15.277 0 0 0-2.483 13.375c.609 2.117.914 4.204.914 6.23v79.333c0 12.323-10.023 22.332-22.362 22.332-12.324 0-22.347-10.009-22.347-22.332v-79.333c0-2.042.29-4.113.884-6.124a15.208 15.208 0 0 0-2.422-13.42 15.215 15.215 0 0 0-12.187-6.108h-28.638c-13.466 0-24.418-10.968-24.418-24.434V258.625h320.197v267.02zM100.751 234.877c-29.125 0-52.812 23.688-52.812 52.797v160.724c0 29.125 23.688 52.812 52.812 52.812 29.125 0 52.813-23.688 52.813-52.812V287.675c0-29.11-23.703-52.798-52.813-52.798zm22.347 213.536c0 12.324-10.023 22.347-22.347 22.347-12.323-.015-22.347-10.038-22.347-22.347V287.675c0-12.323 10.023-22.331 22.347-22.331 12.324 0 22.347 10.023 22.347 22.331v160.738zm484.043-213.536c-29.125 0-52.812 23.688-52.812 52.797v160.724c0 29.125 23.688 52.812 52.812 52.812 29.11 0 52.798-23.688 52.798-52.812V287.675c-.001-29.11-23.688-52.798-52.798-52.798zm22.332 213.536c0 12.324-10.023 22.347-22.332 22.347-12.323 0-22.347-10.022-22.347-22.347V287.675c0-12.323 10.023-22.331 22.347-22.331 12.309 0 22.332 10.023 22.332 22.331v160.738zM426.63 114.537c-9.992 0-18.081 8.089-18.081 18.082s8.089 18.082 18.081 18.082c9.993 0 18.082-8.089 18.082-18.082s-8.089-18.082-18.082-18.082zm-137.096 0c-9.993 0-18.082 8.089-18.082 18.082s8.088 18.082 18.082 18.082c9.993 0 18.082-8.089 18.082-18.082s-8.09-18.082-18.082-18.082z"/></symbol><symbol viewBox="1 1 512 512" id="icons--billboard" xmlns="http://www.w3.org/2000/svg"><path d="M503.465 0H8.53A8.532 8.532 0 0 0 0 8.531v341.336a8.532 8.532 0 0 0 8.531 8.531h85.336v145.067a8.533 8.533 0 0 0 8.531 8.535H128a8.53 8.53 0 0 0 8.531-8.535V358.398h238.934v145.067A8.534 8.534 0 0 0 384 512h25.598a8.534 8.534 0 0 0 8.535-8.535V358.398h85.332a8.533 8.533 0 0 0 8.535-8.53V8.53c0-4.709-3.82-8.53-8.535-8.53zm-384 494.934h-8.531V358.398h8.53zm281.601 0h-8.535V358.398h8.535zm93.868-153.602H17.066V17.066h85.332v17.067H85.332a8.532 8.532 0 0 0-8.09 5.836L68.711 65.57c-1.488 4.473.93 9.305 5.398 10.793a8.5 8.5 0 0 0 2.692.438h68.265a8.533 8.533 0 0 0 8.09-11.23l-8.535-25.602a8.537 8.537 0 0 0-8.09-5.836h-17.066V17.066h128v17.067h-17.063a8.532 8.532 0 0 0-8.09 5.836l-8.535 25.601c-1.488 4.473.93 9.305 5.399 10.793a8.49 8.49 0 0 0 2.691.438h68.266a8.533 8.533 0 0 0 8.09-11.23l-8.535-25.602a8.537 8.537 0 0 0-8.09-5.836H264.53V17.066h128v17.067h-17.066a8.531 8.531 0 0 0-8.086 5.836l-8.535 25.601c-1.489 4.473.93 9.305 5.398 10.793.867.29 1.778.438 2.692.438h68.265a8.533 8.533 0 0 0 8.09-11.23l-8.531-25.602a8.537 8.537 0 0 0-8.09-5.836h-17.066V17.066h85.332zM130.379 51.199l2.844 8.535H88.645l2.84-8.535zm145.066 0l2.844 8.535h-44.578l2.844-8.535zm145.067 0l2.843 8.535h-44.578l2.844-8.535zm0 0"/><path d="M25.602 102.398v221.868a8.533 8.533 0 0 0 8.53 8.535h443.735a8.533 8.533 0 0 0 8.531-8.535V102.398c0-4.71-3.82-8.53-8.53-8.53H34.132a8.532 8.532 0 0 0-8.531 8.53zm17.066 8.536h426.664v204.8H42.668zm0 0"/><path d="M210.832 156.102a8.532 8.532 0 0 0-12.066 0l-34.133 34.132a8.52 8.52 0 0 0-2.5 6.032v68.265a8.533 8.533 0 1 0 17.066 0v-25.597h51.2v25.597a8.534 8.534 0 1 0 17.066 0v-68.265a8.52 8.52 0 0 0-2.5-6.032zm-31.633 65.765v-22.066l25.602-25.602 25.601 25.602v22.066zM307.2 153.598h-34.134a8.534 8.534 0 0 0-8.535 8.535V264.53a8.534 8.534 0 0 0 8.535 8.535H307.2c23.555-.027 42.64-19.113 42.668-42.668v-34.132c-.027-23.551-19.113-42.637-42.668-42.668zm25.6 76.8c0 14.141-11.46 25.602-25.6 25.602h-25.602v-85.332h25.601c14.14 0 25.602 11.46 25.602 25.598zM34.133 375.465C14.993 375.465 0 397.96 0 426.668c0 24.27 10.727 44.031 25.602 49.586v27.21a8.533 8.533 0 1 0 17.066 0v-27.21c14.871-5.555 25.598-25.317 25.598-49.586 0-28.707-14.993-51.203-34.133-51.203zm8.535 80.12V435.2a8.534 8.534 0 1 0-17.066 0v20.387a47.28 47.28 0 0 1-8.536-28.922c0-19.539 9.012-34.133 17.067-34.133 8.054 0 17.066 14.594 17.066 34.133a47.301 47.301 0 0 1-8.531 28.922zm435.199-80.12c-19.14 0-34.133 22.496-34.133 51.203 0 24.27 10.727 44.031 25.598 49.586v27.21a8.534 8.534 0 1 0 17.066 0v-27.21C501.273 470.699 512 450.937 512 426.668c0-28.707-14.992-51.203-34.133-51.203zm8.531 80.12V435.2a8.533 8.533 0 1 0-17.066 0v20.387a47.301 47.301 0 0 1-8.531-28.922c0-19.539 9.011-34.133 17.066-34.133s17.067 14.594 17.067 34.133a47.28 47.28 0 0 1-8.536 28.922zm0 0"/></symbol><symbol viewBox="0 0 612 612" id="icons--clock" xmlns="http://www.w3.org/2000/svg"><path d="M587.572 186.881c-32.266-75.225-87.096-129.934-162.949-162.285C386.711 8.427 346.992.168 305.497.168c-41.488 0-80.914 8.181-118.784 24.428-75.225 32.265-130.298 86.939-162.621 162.285C7.895 224.629 0 264.176 0 305.664c0 41.496 7.895 81.371 24.092 119.127 32.323 75.346 87.403 130.348 162.621 162.621 37.877 16.247 77.295 24.42 118.784 24.42 41.489 0 81.214-8.259 119.12-24.42C500.47 555.06 555.3 500.009 587.573 424.791 603.819 386.914 612 347.16 612 305.664c0-41.488-8.174-80.907-24.428-118.783zm-48.848 253.972c-24.021 41.195-56.929 73.876-98.375 98.039-41.195 24.021-86.332 36.135-134.845 36.135-36.47 0-71.27-7.024-104.4-21.415-33.129-14.384-61.733-33.294-85.661-57.215-23.928-23.928-42.973-52.811-57.214-85.997-14.199-33.065-21.08-68.258-21.08-104.735 0-48.52 11.921-93.428 35.807-134.509 23.971-41.231 56.886-73.947 98.039-98.04 41.146-24.092 85.99-36.142 134.502-36.142 48.52 0 93.649 12.121 134.845 36.142 41.446 24.164 74.283 56.879 98.375 98.039 24.092 41.153 36.135 85.99 36.135 134.509 0 48.521-11.964 93.735-36.128 135.189z"/><path d="M324.906 302.988V129.659c0-10.372-9.037-18.738-19.41-18.738-9.701 0-18.403 8.366-18.403 18.738v176.005c0 .336.671 1.678.671 2.678-.671 6.024 1.007 11.043 5.019 15.062L392.836 423.45c6.695 6.695 19.073 6.695 25.763 0 7.694-7.695 7.188-18.86 0-26.099l-93.693-94.363z"/></symbol><symbol viewBox="0 0 64.083 64.083" id="icons--competitor-analysis" xmlns="http://www.w3.org/2000/svg"><path d="M49.961 17.708c0-.671.448-1.343 1.344-1.567 3.137-.673 5.6-5.375 6.944-9.185l-.672.448c-.448.447-1.347.223-1.792-.225-.448-.674-.225-1.346.224-1.794l3.808-3.136c.226 0 .226-.225.449-.225h.447c.222 0 .225.225.448.225 0 0 .224 0 .224.227l2.465 4.479c.447.672.226 1.568-.449 1.792-.223.226-.445.226-.672.226-.445 0-.895-.226-1.119-.674l-.896-1.792c-1.121 4.257-4.032 10.978-9.185 12.097h-.225c-.671 0-1.118-.225-1.343-.896zM13 16.363c-3.36-.672-5.6-5.375-6.944-9.184l.672.446c.448.448 1.344.448 1.792-.226.448-.446.448-1.344-.224-1.791L4.489 2.473c-.224 0-.224-.225-.448-.225h-.448c-.224 0-.224 0-.448.225l-.225.225L.457 7.177c-.672.675-.448 1.347.224 1.796.224 0 .448.223.672.223.448 0 .896-.223 1.12-.672l.896-1.791c1.344 4.031 4.256 10.976 9.184 12.096h.224c.672 0 1.12-.448 1.12-.896.224-.674-.225-1.346-.897-1.57zm-.447 29.119c-5.152 1.121-8.064 7.84-9.184 12.097l-.896-1.791c-.224-.672-1.12-.896-1.792-.449-.672.449-.896 1.121-.448 1.793l2.464 4.479c0 .224.224.224.224.224.224 0 .224.225.448.225h.224c.224 0 .672 0 .896-.225L8.297 58.7c.448-.449.672-1.121.224-1.793-.448-.673-1.344-.673-1.792-.224l-.672.444c1.343-3.81 3.808-8.51 6.943-9.185.672-.226 1.12-.896.896-1.565 0-.669-.671-1.119-1.343-.895zm50.845 9.634c-.672-.226-1.344-.226-1.791.446l-.896 1.793c-1.344-4.033-4.256-10.979-9.185-12.099-.672-.225-1.344.226-1.567.896 0 .896.448 1.567 1.12 1.567 3.359.673 5.602 5.378 6.943 9.188l-.672-.226c-.449-.449-1.346-.449-1.793.226-.447.446-.447 1.344.226 1.79l3.808 3.138c.225.225.448.225.896.225h.224c.226 0 .226 0 .448-.225l.224-.226 2.466-4.479c.448-.896.224-1.567-.451-2.014zM38.312 42.124c-7.167 4.03-16.352 1.567-20.607-5.601-4.032-7.168-1.568-16.354 5.6-20.608 7.168-4.032 16.353-1.567 20.608 5.601s1.792 16.574-5.601 20.608zm-1.119-2.017c6.049-3.584 8.062-11.2 4.703-17.248-3.584-6.049-11.201-8.064-17.249-4.705-6.048 3.584-8.288 11.201-4.704 17.248 3.362 6.05 11.202 8.065 17.25 4.705zm4.914.965l-6.399 3.699 5.044 8.728 6.4-3.699-5.045-8.728zm-.658 13.819c1.117 1.793 3.357 2.465 5.15 1.344 1.791-1.117 2.463-3.357 1.344-5.148l-6.494 3.804zM24.201 35.627h2.912v-9.855h-2.912v9.855zm5.152-.002h2.912v-6.271h-2.912v6.271zm5.152.002h2.912V22.859h-2.912v12.768z"/></symbol><symbol viewBox="0 0 490.4 490.4" id="icons--down-arrow" xmlns="http://www.w3.org/2000/svg"><path d="M490.4 245.2C490.4 110 380.4 0 245.2 0S0 110 0 245.2s110 245.2 245.2 245.2 245.2-110 245.2-245.2zm-465.9 0c0-121.7 99-220.7 220.7-220.7s220.7 99 220.7 220.7-99 220.7-220.7 220.7-220.7-99-220.7-220.7z"/><path d="M253.9 360.4l68.9-68.9c4.8-4.8 4.8-12.5 0-17.3s-12.5-4.8-17.3 0l-48 48V138.7c0-6.8-5.5-12.3-12.3-12.3s-12.3 5.5-12.3 12.3v183.4l-48-48c-4.8-4.8-12.5-4.8-17.3 0s-4.8 12.5 0 17.3l68.9 68.9c2.4 2.4 5.5 3.6 8.7 3.6s6.3-1.1 8.7-3.5z"/></symbol><symbol viewBox="0 0 475.078 475.077" id="icons--download-to-storage-drive" xmlns="http://www.w3.org/2000/svg"><path d="M467.083 318.627c-5.324-5.328-11.8-7.994-19.41-7.994H315.195l-38.828 38.827c-11.04 10.657-23.982 15.988-38.828 15.988-14.843 0-27.789-5.324-38.828-15.988l-38.543-38.827H27.408c-7.612 0-14.083 2.669-19.414 7.994C2.664 323.955 0 330.427 0 338.044v91.358c0 7.614 2.664 14.085 7.994 19.414 5.33 5.328 11.801 7.99 19.414 7.99h420.266c7.61 0 14.086-2.662 19.41-7.99 5.332-5.329 7.994-11.8 7.994-19.414v-91.358c0-7.617-2.662-14.089-7.995-19.417zm-107.058 96.214c-3.621 3.617-7.905 5.424-12.854 5.424s-9.227-1.807-12.847-5.424c-3.614-3.617-5.421-7.898-5.421-12.844 0-4.948 1.807-9.236 5.421-12.847 3.62-3.62 7.898-5.431 12.847-5.431s9.232 1.811 12.854 5.431c3.613 3.61 5.421 7.898 5.421 12.847 0 4.945-1.808 9.227-5.421 12.844zm73.084 0c-3.614 3.617-7.898 5.424-12.848 5.424-4.948 0-9.229-1.807-12.847-5.424-3.613-3.617-5.42-7.898-5.42-12.844 0-4.948 1.807-9.236 5.42-12.847 3.617-3.62 7.898-5.431 12.847-5.431s9.233 1.811 12.848 5.431c3.617 3.61 5.427 7.898 5.427 12.847 0 4.945-1.807 9.227-5.427 12.844z"/><path d="M224.692 323.479c3.428 3.613 7.71 5.421 12.847 5.421 5.141 0 9.418-1.808 12.847-5.421l127.907-127.908c5.899-5.519 7.234-12.182 3.997-19.986-3.23-7.421-8.847-11.132-16.844-11.136h-73.091V36.543c0-4.948-1.811-9.231-5.421-12.847-3.62-3.617-7.901-5.426-12.847-5.426h-73.096c-4.946 0-9.229 1.809-12.847 5.426-3.615 3.616-5.424 7.898-5.424 12.847V164.45h-73.089c-7.998 0-13.61 3.715-16.846 11.136-3.234 7.801-1.903 14.467 3.999 19.986l127.908 127.907z"/></symbol><symbol viewBox="0 0 612 612" id="icons--email-filled-closed-envelope" xmlns="http://www.w3.org/2000/svg"><path d="M306.768 346.814h.131c4.615 0 9.176-1.339 12.866-3.777l1.001-.643c.218-.142.446-.271.675-.424l11.658-9.645 278.259-229.624c-.576-.795-1.557-1.339-2.602-1.339H3.233c-.751 0-1.448.272-2.003.729l291.125 239.954c3.669 3.038 8.904 4.769 14.413 4.769zM0 133.899v340.37l208.55-168.471L0 133.899zm403.668 173.042L612 474.356V135.031l-208.332 171.91zm-66.237 54.644c-8.305 6.814-19.168 10.57-30.576 10.57-11.451 0-22.304-3.734-30.587-10.516l-47.765-39.394L0 506.806v.587c0 1.753 1.502 3.244 3.276 3.244h605.491c1.741 0 3.232-1.491 3.232-3.255v-.544L383.693 323.4l-46.262 38.185z"/></symbol><symbol viewBox="0 0 512 512" id="icons--form" xmlns="http://www.w3.org/2000/svg"><path d="M176 60c5.52 0 10-4.48 10-10s-4.48-10-10-10-10 4.48-10 10 4.48 10 10 10zm-66 146c5.52 0 10-4.48 10-10s-4.48-10-10-10-10 4.48-10 10 4.48 10 10 10zm372-60h-10v-20c0-9.836-3.54-19.129-10-26.438V76c0-16.543-13.457-30-30-30s-30 13.457-30 30v23.574A39.967 39.967 0 0 0 392 126v276c0 49.902 28.582 80.715 30 83.332V502c0 5.523 4.477 10 10 10s10-4.477 10-10v-16.668c1.414-2.613 30-33.164 30-83.332V166h10c5.516 0 10 4.484 10 10v80c0 5.523 4.477 10 10 10s10-4.477 10-10v-80c0-16.543-13.457-30-30-30zm-70-20c0-10.98 8.945-20 20-20 10.77 0 20 8.71 20 20v20h-40zm20-60c5.516 0 10 4.484 10 10v11.281A39.838 39.838 0 0 0 432 86c-3.406 0-6.762.441-10 1.277V76c0-5.516 4.484-10 10-10zm0 399.242c-11.004-15.676-17.77-34.199-19.535-53.254h39.07c-1.765 19.055-8.531 37.578-19.535 53.254zM452 392h-40V166h40zm0 0"/><path d="M322 512c16.543 0 30-13.457 30-30V110c0-16.543-13.457-30-30-30h-51.719C266.152 68.36 255.035 60 242 60h-17.047A48.1 48.1 0 0 0 226 50c0-27.57-22.43-50-50-50s-50 22.43-50 50a48.1 48.1 0 0 0 1.047 10H110c-13.035 0-24.152 8.36-28.281 20H30C13.457 80 0 93.457 0 110v372c0 16.543 13.457 30 30 30zm-30-105.855V452h-45.855zm-60 31.71V392h45.855zM292 372h-70c-5.523 0-10 4.477-10 10v70H60V140h232zM110 80h31.559c3.582 0 6.886-1.914 8.671-5.016a10.006 10.006 0 0 0-.027-10.015C147.414 60.179 146 55.14 146 50c0-16.543 13.457-30 30-30s30 13.457 30 30c0 5.14-1.414 10.18-4.203 14.969a9.997 9.997 0 0 0-.027 10.015A9.997 9.997 0 0 0 210.44 80H242c5.516 0 10 4.484 10 10v30H100V90c0-5.516 4.484-10 10-10zM20 482V110c0-5.516 4.484-10 10-10h50v20H50c-5.523 0-10 4.477-10 10v332c0 5.523 4.477 10 10 10h252c5.523 0 10-4.477 10-10V130c0-5.523-4.477-10-10-10h-30v-20h50c5.516 0 10 4.484 10 10v372c0 5.516-4.484 10-10 10H30c-5.516 0-10-4.484-10-10zm0 0"/><path d="M242 186h-92c-5.523 0-10 4.477-10 10s4.477 10 10 10h92c5.523 0 10-4.477 10-10s-4.477-10-10-10zm0 106H110c-5.523 0-10 4.477-10 10s4.477 10 10 10h132c5.523 0 10-4.477 10-10s-4.477-10-10-10zm0 40H110c-5.523 0-10 4.477-10 10s4.477 10 10 10h132c5.523 0 10-4.477 10-10s-4.477-10-10-10zm0-80H110c-5.523 0-10 4.477-10 10s4.477 10 10 10h132c5.523 0 10-4.477 10-10s-4.477-10-10-10zm0 0"/></symbol><symbol viewBox="0 0 512.001 512" id="icons--idea" xmlns="http://www.w3.org/2000/svg"><path d="M256 0C167.996 0 96.398 71.598 96.398 159.602c0 50.648 23.88 97.91 64.266 128.003v13.329c-9.836 8.644-16.062 21.304-16.062 35.398 0 12.41 4.828 23.711 12.695 32.137-7.867 8.426-12.695 19.722-12.695 32.133 0 21.14 13.988 39.074 33.199 45.027C183.98 483.223 216.684 512 256 512c39.316 0 72.023-28.777 78.203-66.371 19.207-5.957 33.2-23.887 33.2-45.031 0-12.407-4.829-23.707-12.696-32.133 7.867-8.426 12.695-19.723 12.695-32.133 0-14.094-6.226-26.754-16.066-35.402v-13.325c40.387-30.093 64.266-77.355 64.266-128.003C415.602 71.598 344.004 0 256 0zm64.27 319.2c9.445 0 17.132 7.687 17.132 17.132 0 9.45-7.687 17.137-17.132 17.137H191.734c-9.449 0-17.136-7.688-17.136-17.137 0-9.445 7.687-17.133 17.136-17.133zM256 482c-21.938 0-40.57-14.414-46.934-34.266h93.868C296.574 467.59 277.937 482 256 482zm64.27-64.266H191.734c-9.449 0-17.136-7.687-17.136-17.132 0-9.45 7.687-17.133 17.136-17.133H320.27c9.445 0 17.132 7.683 17.132 17.133 0 9.445-7.687 17.132-17.132 17.132zm7.722-150.355a15.001 15.001 0 0 0-6.656 12.465v9.383c-.356-.008-.711-.028-1.066-.028h-17.137v-59.117l21.539-21.539c5.86-5.86 5.86-15.356 0-21.215-5.856-5.86-15.356-5.86-21.211 0l-25.934 25.934a14.996 14.996 0 0 0-4.394 10.605V289.2h-34.266v-65.332c0-3.976-1.582-7.793-4.394-10.605l-25.934-25.934c-5.855-5.855-15.351-5.855-21.21 0-5.86 5.86-5.86 15.356 0 21.215l21.538 21.539v59.121h-17.133c-.359 0-.714.016-1.07.024v-9.383c0-5.004-2.496-9.68-6.656-12.465-36.07-24.149-57.61-64.438-57.61-107.777C126.398 88.137 184.54 30 256 30c71.46 0 129.602 58.137 129.602 129.602 0 43.34-21.54 83.628-57.61 107.777zM62.133 159.602c0-8.286-6.715-15-15-15H15c-8.285 0-15 6.714-15 15 0 8.28 6.715 15 15 15h32.133c8.285 0 15-6.72 15-15zm434.867-15h-32.133c-8.281 0-15 6.714-15 15 0 8.28 6.719 15 15 15H497c8.285 0 15-6.72 15-15 0-8.286-6.715-15-15-15zM67.613 251.043l-27.828 16.066c-7.172 4.145-9.629 13.317-5.488 20.493 2.777 4.812 7.82 7.5 13.004 7.5 2.543 0 5.125-.645 7.484-2.012l27.828-16.063c7.176-4.144 9.633-13.316 5.492-20.492-4.14-7.176-13.316-9.633-20.492-5.492zM436.898 70.172c2.543 0 5.122-.649 7.485-2.012l27.832-16.07c7.172-4.14 9.633-13.313 5.488-20.488-4.144-7.176-13.316-9.633-20.488-5.489L429.383 42.18c-7.172 4.14-9.633 13.316-5.488 20.488 2.777 4.812 7.82 7.504 13.003 7.504zM472.21 267.11l-27.827-16.063c-7.176-4.14-16.352-1.684-20.492 5.492-4.141 7.172-1.68 16.348 5.492 20.488l27.832 16.063a14.917 14.917 0 0 0 7.484 2.012c5.184 0 10.227-2.692 13.004-7.504 4.145-7.172 1.684-16.348-5.492-20.489zM82.617 42.176L54.79 26.113c-7.176-4.144-16.348-1.683-20.488 5.492-4.145 7.176-1.684 16.348 5.488 20.489L67.617 68.16a14.938 14.938 0 0 0 7.485 2.012 15 15 0 0 0 13.007-7.504c4.141-7.176 1.68-16.348-5.492-20.492zm0 0"/></symbol><symbol viewBox="0 0 512 512" id="icons--incognito" xmlns="http://www.w3.org/2000/svg"><path d="M433.581 203.525V55.304c0-16.492-7.274-31.994-19.958-42.532C400.939 2.233 384.366-2.072 368.153.945c-.198.037-.396.08-.592.13-.838.209-84.121 20.944-111.562 20.944-27.429 0-110.723-20.735-111.56-20.944a9.211 9.211 0 0 0-.593-.13c-16.211-3.022-32.784 1.288-45.469 11.826-12.684 10.539-19.959 26.04-19.959 42.534v148.221C27.35 219.502.406 241.244.406 266.628c0 25.463 27.307 47.393 78.971 63.417 47.319 14.677 110.045 22.76 176.623 22.76s129.305-8.083 176.624-22.76c51.663-16.024 78.971-37.953 78.971-63.417-.001-25.384-26.946-47.126-78.014-63.103zm-335.162-50.71c43.544 10.403 96.943 16.082 152.086 16.082 33.432 0 65.89-2.024 96.472-6.016 5.476-.715 9.336-5.734 8.621-11.21-.715-5.477-5.734-9.346-11.21-8.622-29.727 3.88-61.314 5.848-93.883 5.848-55.636 0-109.261-5.903-152.086-16.676V55.304a35.194 35.194 0 0 1 12.739-27.15 35.182 35.182 0 0 1 28.745-7.598C146.48 22.193 226.734 42.019 256 42.019c29.265 0 109.519-19.825 116.096-21.463a35.187 35.187 0 0 1 28.745 7.598 35.192 35.192 0 0 1 12.739 27.149V165.35c-44.493 12.667-102.017 19.613-163.076 19.613-55.639 0-109.264-5.903-152.086-16.675v-15.473zm-.001 58.133v-22.063c43.539 10.402 96.941 16.079 152.086 16.079 60.387 0 117.649-6.658 163.076-18.857v15.519c-43.5 11.473-98.862 17.781-156.375 17.781-32.576 0-64.164-1.968-93.883-5.848-5.478-.725-10.495 3.145-11.21 8.621-.715 5.477 3.145 10.496 8.621 11.211 30.574 3.991 63.032 6.016 96.472 6.016 56.97 0 112.077-6.06 156.375-17.129v12.669c-44.49 12.665-102.019 19.605-163.076 19.605-55.638 0-109.265-5.898-152.086-16.671v-26.933zm328.281 99.994C381.245 325.041 320.623 332.804 256 332.804s-125.245-7.764-170.698-21.862c-40.028-12.416-64.896-29.396-64.896-44.313 0-14.169 21.897-29.858 58.013-42.072v21.041c0 1.973.578 3.838 1.592 5.413a9.995 9.995 0 0 0 5.775 4.235c28.51 7.781 62.053 13.378 97.996 16.481a752.87 752.87 0 0 0 32.926 2.111c11.144.474 22.433.715 33.796.715 66.279 0 128.792-8.02 176.022-22.583a10 10 0 0 0 7.054-9.556v-17.856c36.116 12.214 58.014 27.903 58.014 42.072-.001 14.916-24.867 31.896-64.895 44.312z"/><path d="M395.089 144.457a10.384 10.384 0 0 0-.569-1.88 10.122 10.122 0 0 0-.921-1.721 9.51 9.51 0 0 0-1.239-1.52c-.46-.46-.971-.88-1.521-1.24a9.964 9.964 0 0 0-1.729-.92 9.412 9.412 0 0 0-1.87-.57c-3.25-.659-6.7.41-9.02 2.73-.46.46-.88.97-1.239 1.52-.36.54-.67 1.12-.92 1.721a10.42 10.42 0 0 0-.58 1.88c-.131.64-.19 1.3-.19 1.95 0 .649.06 1.309.19 1.949.13.64.33 1.27.58 1.87.25.61.56 1.19.92 1.73.359.55.779 1.059 1.239 1.52.46.46.971.88 1.52 1.25.54.351 1.12.66 1.72.91.61.25 1.24.441 1.88.57.641.13 1.3.2 1.95.2s1.31-.07 1.95-.2c.64-.13 1.27-.32 1.87-.57.609-.25 1.189-.559 1.729-.91.55-.37 1.06-.79 1.521-1.25.46-.46.88-.97 1.239-1.52a10.096 10.096 0 0 0 1.49-3.6c.13-.64.2-1.3.2-1.949 0-.65-.07-1.311-.2-1.95zm-262.859 70.51c-.133-.64-.322-1.27-.572-1.87a10.01 10.01 0 0 0-.92-1.73c-.37-.551-.79-1.061-1.25-1.52-.46-.46-.97-.88-1.521-1.24a9.544 9.544 0 0 0-1.72-.92 9.806 9.806 0 0 0-1.87-.569 9.86 9.86 0 0 0-3.91 0c-.64.12-1.27.319-1.87.569a9.327 9.327 0 0 0-1.729.92c-.55.36-1.06.78-1.521 1.24-.46.46-.88.97-1.239 1.52a10.122 10.122 0 0 0-1.69 5.55c0 2.63 1.07 5.21 2.93 7.07.461.46.971.88 1.521 1.239.54.36 1.12.67 1.729.92.601.25 1.231.45 1.87.57.641.13 1.301.2 1.95.2.65 0 1.311-.07 1.95-.2a9.71 9.71 0 0 0 1.88-.57c.6-.25 1.18-.56 1.72-.92a9.473 9.473 0 0 0 1.521-1.239 10.08 10.08 0 0 0 2.93-7.07c0-.65-.06-1.311-.189-1.95zm271.605 165.032h-295.67c-23.986 0-43.5 19.514-43.5 43.5V466.5c0 25.089 20.411 45.5 45.5 45.5h64.81c40.193 0 72.893-32.699 72.893-72.893v-39.108h16.267v39.108c0 40.193 32.698 72.893 72.892 72.893h64.811c25.089 0 45.501-20.411 45.501-45.5v-43.001c-.003-23.986-19.518-43.5-43.504-43.5zM174.974 492h-64.81c-14.061 0-25.5-11.439-25.5-25.5v-43.001c0-12.958 10.542-23.5 23.5-23.5h119.701v39.108h.001c0 29.165-23.727 52.893-52.892 52.893zm226.861 0h-64.811c-29.164 0-52.892-23.728-52.892-52.893v-39.108h119.701c12.958 0 23.5 10.542 23.5 23.5V466.5h.001c.002 14.061-11.438 25.5-25.499 25.5z"/><path d="M145.684 410.211c-3.904-3.904-10.235-3.904-14.141 0l-32.334 32.334c-3.905 3.905-3.904 10.237.001 14.143a9.97 9.97 0 0 0 7.07 2.929c2.56 0 5.119-.977 7.071-2.929l32.334-32.334c3.905-3.905 3.904-10.237-.001-14.143zm202.387 0c-3.904-3.904-10.236-3.904-14.142 0l-32.333 32.334c-3.905 3.905-3.905 10.237 0 14.143 1.953 1.952 4.512 2.929 7.071 2.929s5.118-.977 7.071-2.929l32.333-32.334c3.905-3.905 3.905-10.237 0-14.143z"/></symbol><symbol viewBox="0 0 512.001 512" id="icons--incognito1" xmlns="http://www.w3.org/2000/svg"><path d="M256 0C167.996 0 96.398 71.598 96.398 159.602c0 50.648 23.88 97.91 64.266 128.003v13.329c-9.836 8.644-16.062 21.304-16.062 35.398 0 12.41 4.828 23.711 12.695 32.137-7.867 8.426-12.695 19.722-12.695 32.133 0 21.14 13.988 39.074 33.199 45.027C183.98 483.223 216.684 512 256 512c39.316 0 72.023-28.777 78.203-66.371 19.207-5.957 33.2-23.887 33.2-45.031 0-12.407-4.829-23.707-12.696-32.133 7.867-8.426 12.695-19.723 12.695-32.133 0-14.094-6.226-26.754-16.066-35.402v-13.325c40.387-30.093 64.266-77.355 64.266-128.003C415.602 71.598 344.004 0 256 0zm64.27 319.2c9.445 0 17.132 7.687 17.132 17.132 0 9.45-7.687 17.137-17.132 17.137H191.734c-9.449 0-17.136-7.688-17.136-17.137 0-9.445 7.687-17.133 17.136-17.133zM256 482c-21.938 0-40.57-14.414-46.934-34.266h93.868C296.574 467.59 277.937 482 256 482zm64.27-64.266H191.734c-9.449 0-17.136-7.687-17.136-17.132 0-9.45 7.687-17.133 17.136-17.133H320.27c9.445 0 17.132 7.683 17.132 17.133 0 9.445-7.687 17.132-17.132 17.132zm7.722-150.355a15.001 15.001 0 0 0-6.656 12.465v9.383c-.356-.008-.711-.028-1.066-.028h-17.137v-59.117l21.539-21.539c5.86-5.86 5.86-15.356 0-21.215-5.856-5.86-15.356-5.86-21.211 0l-25.934 25.934a14.996 14.996 0 0 0-4.394 10.605V289.2h-34.266v-65.332c0-3.976-1.582-7.793-4.394-10.605l-25.934-25.934c-5.855-5.855-15.351-5.855-21.21 0-5.86 5.86-5.86 15.356 0 21.215l21.538 21.539v59.121h-17.133c-.359 0-.714.016-1.07.024v-9.383c0-5.004-2.496-9.68-6.656-12.465-36.07-24.149-57.61-64.438-57.61-107.777C126.398 88.137 184.54 30 256 30c71.46 0 129.602 58.137 129.602 129.602 0 43.34-21.54 83.628-57.61 107.777zM62.133 159.602c0-8.286-6.715-15-15-15H15c-8.285 0-15 6.714-15 15 0 8.28 6.715 15 15 15h32.133c8.285 0 15-6.72 15-15zm434.867-15h-32.133c-8.281 0-15 6.714-15 15 0 8.28 6.719 15 15 15H497c8.285 0 15-6.72 15-15 0-8.286-6.715-15-15-15zM67.613 251.043l-27.828 16.066c-7.172 4.145-9.629 13.317-5.488 20.493 2.777 4.812 7.82 7.5 13.004 7.5 2.543 0 5.125-.645 7.484-2.012l27.828-16.063c7.176-4.144 9.633-13.316 5.492-20.492-4.14-7.176-13.316-9.633-20.492-5.492zM436.898 70.172c2.543 0 5.122-.649 7.485-2.012l27.832-16.07c7.172-4.14 9.633-13.313 5.488-20.488-4.144-7.176-13.316-9.633-20.488-5.489L429.383 42.18c-7.172 4.14-9.633 13.316-5.488 20.488 2.777 4.812 7.82 7.504 13.003 7.504zM472.21 267.11l-27.827-16.063c-7.176-4.14-16.352-1.684-20.492 5.492-4.141 7.172-1.68 16.348 5.492 20.488l27.832 16.063a14.917 14.917 0 0 0 7.484 2.012c5.184 0 10.227-2.692 13.004-7.504 4.145-7.172 1.684-16.348-5.492-20.489zM82.617 42.176L54.79 26.113c-7.176-4.144-16.348-1.683-20.488 5.492-4.145 7.176-1.684 16.348 5.488 20.489L67.617 68.16a14.938 14.938 0 0 0 7.485 2.012 15 15 0 0 0 13.007-7.504c4.141-7.176 1.68-16.348-5.492-20.492zm0 0"/></symbol><symbol viewBox="0 0 56 56" id="icons--interview" xmlns="http://www.w3.org/2000/svg"><path d="M12 24c3.309 0 6-2.691 6-6s-2.691-6-6-6-6 2.691-6 6 2.691 6 6 6zm0-10c2.206 0 4 1.794 4 4s-1.794 4-4 4-4-1.794-4-4 1.794-4 4-4zm32 10c3.309 0 6-2.691 6-6s-2.691-6-6-6-6 2.691-6 6 2.691 6 6 6zm0-10c2.206 0 4 1.794 4 4s-1.794 4-4 4-4-1.794-4-4 1.794-4 4-4zm10 12v13c0 1.654-1.346 3-3 3V31c0-2.757-2.243-5-5-5h-5a1 1 0 0 0-1 1v6h-8a1 1 0 0 0-1 1v3h-6v-3a1 1 0 0 0-1-1h-8v-6a1 1 0 0 0-1-1h-5c-2.757 0-5 2.243-5 5v11c-1.654 0-3-1.346-3-3V26H0v13a5.003 5.003 0 0 0 3 4.576V56h2V44h10v11a1 1 0 0 0 1 1h5V39h14v17h5a1 1 0 0 0 1-1V44h10v12h2V43.576A5.003 5.003 0 0 0 56 39V26h-2zM20 37h-8v-6h-2v7a1 1 0 0 0 1 1h7c.551 0 1 .449 1 1v14h-2V43a1 1 0 0 0-1-1H7V31c0-1.654 1.346-3 3-3h4v6a1 1 0 0 0 1 1h8v2h-3zm20 5a1 1 0 0 0-1 1v11h-2V40c0-.551.449-1 1-1h7a1 1 0 0 0 1-1v-7h-2v6H33v-2h8a1 1 0 0 0 1-1v-6h4c1.654 0 3 1.346 3 3v11h-9zM19 10v3a1 1 0 0 0 1.8.6l2.7-3.6H31c1.654 0 3-1.346 3-3V3c0-1.654-1.346-3-3-3H19c-1.654 0-3 1.346-3 3v4c0 1.654 1.346 3 3 3zm-1-7c0-.551.449-1 1-1h12c.551 0 1 .449 1 1v4c0 .551-.449 1-1 1h-8a1 1 0 0 0-.8.4L21 10V9a1 1 0 0 0-1-1h-1c-.551 0-1-.449-1-1V3z"/><path d="M20 4h10v2H20zm7 21h6v2h-6z"/><path d="M26 21c-1.654 0-3 1.346-3 3v4c0 1.654 1.346 3 3 3h8c1.654 0 3-1.346 3-3v-.697l1.832-2.748A.998.998 0 0 0 38 23h-1.171A3.006 3.006 0 0 0 34 21h-8zm9 3a1 1 0 0 0 1 1h.131l-.963 1.445A1.006 1.006 0 0 0 35 27v1c0 .551-.449 1-1 1h-8c-.551 0-1-.449-1-1v-4c0-.551.449-1 1-1h8c.551 0 1 .449 1 1zm-12-8h2v2h-2zm4 0h2v2h-2zm4 0h2v2h-2z"/></symbol><symbol viewBox="0 0 512 512" id="icons--map-marker" xmlns="http://www.w3.org/2000/svg"><path d="M256 0C167.641 0 96 71.625 96 160c0 24.75 5.625 48.219 15.672 69.125C112.234 230.313 256 512 256 512l142.594-279.375C409.719 210.844 416 186.156 416 160 416 71.625 344.375 0 256 0zm0 256c-53.016 0-96-43-96-96s42.984-96 96-96c53 0 96 43 96 96s-43 96-96 96z"/></symbol><symbol viewBox="0 0 578.106 578.106" id="icons--phone-call" xmlns="http://www.w3.org/2000/svg"><path d="M577.83 456.128c1.225 9.385-1.635 17.545-8.568 24.48l-81.396 80.781c-3.672 4.08-8.465 7.551-14.381 10.404-5.916 2.857-11.729 4.693-17.439 5.508-.408 0-1.635.105-3.676.309-2.037.203-4.689.307-7.953.307-7.754 0-20.301-1.326-37.641-3.979s-38.555-9.182-63.645-19.584c-25.096-10.404-53.553-26.012-85.376-46.818-31.823-20.805-65.688-49.367-101.592-85.68-28.56-28.152-52.224-55.08-70.992-80.783-18.768-25.705-33.864-49.471-45.288-71.299-11.425-21.828-19.993-41.616-25.705-59.364S4.59 177.362 2.55 164.51-.306 141.56.102 134.216c.408-7.344.612-11.424.612-12.24.816-5.712 2.652-11.526 5.508-17.442s6.324-10.71 10.404-14.382L98.022 8.756c5.712-5.712 12.24-8.568 19.584-8.568 5.304 0 9.996 1.53 14.076 4.59s7.548 6.834 10.404 11.322l65.484 124.236c3.672 6.528 4.692 13.668 3.06 21.42-1.632 7.752-5.1 14.28-10.404 19.584l-29.988 29.988c-.816.816-1.53 2.142-2.142 3.978s-.918 3.366-.918 4.59c1.632 8.568 5.304 18.36 11.016 29.376 4.896 9.792 12.444 21.726 22.644 35.802s24.684 30.293 43.452 48.653c18.36 18.77 34.68 33.354 48.96 43.76 14.277 10.4 26.215 18.053 35.803 22.949 9.588 4.896 16.932 7.854 22.031 8.871l7.648 1.531c.816 0 2.145-.307 3.979-.918 1.836-.613 3.162-1.326 3.979-2.143l34.883-35.496c7.348-6.527 15.912-9.791 25.705-9.791 6.938 0 12.443 1.223 16.523 3.672h.611l118.115 69.768c8.571 5.308 13.67 12.038 15.303 20.198z"/></symbol><symbol viewBox="0 0 294.843 294.843" id="icons--play-button" xmlns="http://www.w3.org/2000/svg"><path d="M278.527 79.946c-10.324-20.023-25.38-37.704-43.538-51.132a6.001 6.001 0 0 0-7.135 9.649c16.687 12.34 30.521 28.586 40.008 46.983 9.94 19.277 14.98 40.128 14.98 61.976 0 74.671-60.75 135.421-135.421 135.421S12 222.093 12 147.421 72.75 12 147.421 12a6 6 0 0 0 0-12C66.133 0 0 66.133 0 147.421s66.133 147.421 147.421 147.421 147.421-66.133 147.421-147.421c0-23.444-5.641-46.776-16.315-67.475z"/><path d="M109.699 78.969a6.002 6.002 0 0 0-3.035 5.216v131.674a6 6 0 0 0 12 0V94.74l88.833 52.883-65.324 42.087a6 6 0 1 0 6.5 10.087l73.465-47.333a6 6 0 0 0-.181-10.2L115.733 79.029a6 6 0 0 0-6.034-.06z"/></symbol><symbol viewBox="0 -14 512 512" id="icons--promotion" xmlns="http://www.w3.org/2000/svg"><path d="M136.965 308.234c4.781-2.757 6.418-8.879 3.66-13.66-2.762-4.777-8.879-6.418-13.66-3.66-4.781 2.762-6.422 8.883-3.66 13.66 2.757 4.781 8.879 6.422 13.66 3.66zm0 0"/><path d="M95.984 377.254l50.36 87.23c10.867 18.844 35.312 25.82 54.644 14.645 19.13-11.055 25.703-35.496 14.637-54.64l-30-51.97 25.98-15c4.782-2.765 6.422-8.878 3.66-13.66l-13.003-22.523c1.55-.3 11.746-2.3 191.539-37.57 22.226-1.207 35.543-25.516 24.316-44.95l-33.234-57.562 21.238-32.168a10.004 10.004 0 0 0 .317-10.512l-20-34.64a10.02 10.02 0 0 0-9.262-4.98l-38.473 2.308-36.894-63.907c-5.344-9.257-14.918-14.863-25.606-14.996-.129-.004-.254-.004-.383-.004-10.328 0-19.703 5.141-25.257 13.832L119.93 202.602l-84.926 49.03C1.602 270.91-9.97 313.763 9.383 347.255c17.68 30.625 54.953 42.672 86.601 30zm102.325 57.238c5.523 9.555 2.254 21.781-7.329 27.317-9.613 5.558-21.855 2.144-27.316-7.32l-50-86.614 34.64-20c57.868 100.242 49.075 85.012 50.005 86.617zm-22.684-79.297l-10-17.32 17.32-10 10 17.32zm196.582-235.91l13.82 23.938-12.324 18.664-23.82-41.262zM267.289 47.152c2.684-4.39 6.941-4.843 8.668-4.797 1.707.02 5.961.551 8.527 4.997l116.313 201.464c3.789 6.559-.817 14.805-8.414 14.993-1.363.03-1.992.277-5.485.93L263.863 51.632c2.582-3.32 2.914-3.64 3.426-4.48zm-16.734 21.434l115.597 200.223-174.46 34.218-53.047-91.879zM26.703 337.254a49.933 49.933 0 0 1-6.71-24.95c0-17.835 9.585-34.445 25.01-43.35l77.942-45 50 86.6-77.941 45.005c-23.879 13.78-54.516 5.57-68.3-18.305zm0 0"/><path d="M105.984 314.574c-2.761-4.781-8.879-6.422-13.66-3.66l-17.32 10c-4.774 2.758-10.902 1.113-13.66-3.66-2.762-4.781-8.88-6.422-13.66-3.66s-6.422 8.879-3.66 13.66c8.23 14.258 26.59 19.285 40.98 10.98l17.32-10c4.781-2.761 6.422-8.875 3.66-13.66zM497.137 43.746l-55.723 31.008c-4.824 2.687-6.562 8.777-3.875 13.601 2.68 4.82 8.766 6.567 13.602 3.875l55.718-31.007c4.829-2.688 6.563-8.778 3.875-13.602-2.683-4.828-8.773-6.562-13.597-3.875zm-5.844 103.57l-38.637-10.351c-5.336-1.43-10.82 1.734-12.25 7.07-1.43 5.336 1.739 10.817 7.074 12.246l38.641 10.352c5.367 1.441 10.824-1.774 12.246-7.07 1.43-5.336-1.738-10.82-7.074-12.247zM394.2 7.414l-10.364 38.64c-1.43 5.337 1.734 10.817 7.07 12.25 5.332 1.426 10.817-1.73 12.25-7.07l10.36-38.64c1.43-5.336-1.735-10.82-7.07-12.25-5.333-1.43-10.817 1.734-12.247 7.07zm0 0"/></symbol><symbol viewBox="0 0 512 512" id="icons--russia" xmlns="http://www.w3.org/2000/svg"><path d="M473.655 88.276H38.345C17.167 88.276 0 105.443 0 126.621v73.471h512v-73.471c0-21.178-17.167-38.345-38.345-38.345zM0 385.379c0 21.177 17.167 38.345 38.345 38.345h435.31c21.177 0 38.345-17.167 38.345-38.345v-73.471H0v73.471z"/><path d="M0 200.09h512V311.9H0z"/></symbol><symbol viewBox="0 0 512 512.001" id="icons--search" xmlns="http://www.w3.org/2000/svg"><path d="M153.61 34.18c-65.973 0-119.454 53.484-119.454 119.457 0 65.972 53.48 119.453 119.453 119.453s119.457-53.48 119.457-119.453C272.996 87.69 219.555 34.25 153.61 34.18zm0 221.847c-56.548 0-102.387-45.843-102.387-102.39 0-56.551 45.84-102.39 102.386-102.39C210.16 51.246 256 97.085 256 153.636c-.063 56.523-45.867 102.328-102.39 102.39zm0 0"/><path d="M503.441 179.234h-34.129v-25.597a8.533 8.533 0 0 0-8.53-8.535h-34.466c-3.457-38.602-35.78-68.2-74.539-68.258h-65.359C244.098 3.422 150.266-21.793 76.844 20.53 3.422 62.851-21.793 156.684 20.53 230.105a153.456 153.456 0 0 0 13.625 19.852V512H51.22V267.785a152.852 152.852 0 0 0 76.793 37.121v53.508H76.816v17.066h25.598v34.13H76.816v17.066h25.598v34.129H76.816v17.066h25.598V512h17.066V375.48h68.258V512h17.067V366.95a8.533 8.533 0 0 0-8.532-8.536h-17.066v-53.508a152.943 152.943 0 0 0 70.727-31.816h40.195v-17.067h-22.371c39.836-44.136 50.484-107.363 27.305-162.117h46.261v59.727a8.534 8.534 0 0 0 8.535 8.535h59.727V512h17.066V162.168h25.594V512h17.067V196.297h25.597V512h17.067V187.766a8.534 8.534 0 0 0-8.536-8.532zm-341.296 179.18h-17.067v-51.629c2.84.164 5.649.434 8.531.434 2.887 0 5.692-.27 8.536-.434zm-8.536-68.258c-75.394 0-136.52-61.12-136.52-136.52 0-75.398 61.122-136.519 136.52-136.519s136.52 61.121 136.52 136.52c-.09 75.36-61.156 136.43-136.52 136.52zm204.782-145.054V94.316c26.656 3.11 47.675 24.133 50.785 50.786zm0 0"/><path d="M93.883 153.637h17.066v51.195H93.883zm34.129-25.597h17.066v76.792h-17.066zm34.133-25.599h17.062v102.391h-17.062zm34.128 34.129h17.063v68.262h-17.063zm145.051 68.262h42.664v17.063h-42.664zm0 51.195h42.664v17.063h-42.664zm0 51.192h42.664v17.066h-42.664zm0 51.195h42.664v17.066h-42.664zm0 51.196h42.664v17.066h-42.664zm0 51.195h42.664v17.066h-42.664zm-93.855-153.586h42.66v17.066h-42.66zm0 51.195h42.66v17.066h-42.66zm0 51.196h42.66v17.066h-42.66zm0 51.195h42.66v17.066h-42.66zM76.816 307.219h34.133v17.066H76.816zm0 0"/></symbol><symbol viewBox="0 0 512 512" id="icons--uk" xmlns="http://www.w3.org/2000/svg"><path d="M473.655 88.276H38.345C17.167 88.276 0 105.443 0 126.621V385.38c0 21.177 17.167 38.345 38.345 38.345h435.31c21.177 0 38.345-17.167 38.345-38.345V126.621c0-21.178-17.167-38.345-38.345-38.345z"/><path d="M511.469 120.282c-3.022-18.159-18.797-32.007-37.814-32.007h-9.977l-163.54 107.147V88.276h-88.276v107.147L48.322 88.276h-9.977c-19.017 0-34.792 13.847-37.814 32.007l139.778 91.58H0v88.276h140.309L.531 391.717c3.022 18.159 18.797 32.007 37.814 32.007h9.977l163.54-107.147v107.147h88.276V316.577l163.54 107.147h9.977c19.017 0 34.792-13.847 37.814-32.007l-139.778-91.58H512v-88.276H371.691l139.778-91.579z"/><path d="M282.483 88.276h-52.966v141.241H0v52.966h229.517v141.241h52.966V282.483H512v-52.966H282.483z"/><path d="M24.793 421.252l186.583-121.114h-32.428L9.224 410.31a38.393 38.393 0 0 0 15.569 10.942zm321.595-121.114H313.96l180.716 117.305a38.515 38.515 0 0 0 12.287-13.075l-160.575-104.23zM4.049 109.475l157.73 102.387h32.428L15.475 95.842a38.499 38.499 0 0 0-11.426 13.633zm328.517 102.387l170.035-110.375a38.4 38.4 0 0 0-15.699-10.86L300.138 211.862h32.428z"/></symbol><symbol viewBox="0 0 512 512" id="icons--ukraine" xmlns="http://www.w3.org/2000/svg"><path d="M0 385.379c0 21.177 17.167 38.345 38.345 38.345h435.31c21.177 0 38.345-17.167 38.345-38.345V256H0v129.379zM473.655 88.276H38.345C17.167 88.276 0 105.443 0 126.621V256h512V126.621c0-21.178-17.167-38.345-38.345-38.345z"/></symbol><symbol viewBox="0 0 480 480" id="icons--visitor" xmlns="http://www.w3.org/2000/svg"><path d="M125.112 383.126a42.14 42.14 0 0 0-18.2-6.736A55.528 55.528 0 0 0 128 335.998c0-52.896-30.456-64-56-64s-56 11.104-56 64a55.53 55.53 0 0 0 21.096 40.392C15.89 379.003-.031 397.031 0 418.398v53.6a8 8 0 0 0 8 8h128a8 8 0 0 0 8-8v-53.6a42.328 42.328 0 0 0-18.888-35.272zm-92.696-55.592C34.584 300.718 47.2 287.998 72 287.998c22.704 0 35.2 10.736 38.776 33.136l-26.656-16a8 8 0 0 0-11.704 4.328c-4.048 12.144-25.904 16.736-40 18.072zm.696 16.048c13.696-1.128 38.4-5.272 49.92-20.44l28.592 17.16C108.416 359.894 84.28 375.998 72 375.998a50.402 50.402 0 0 1-38.888-32.416zm45.496 78.48L72 428.686l-6.608-6.616L72 405.534l6.608 16.528zM128 463.998H16v-45.6c0-14.58 11.82-26.4 26.4-26.4h17.76L48.568 421.03a8.001 8.001 0 0 0 1.776 8.624l16 16a8 8 0 0 0 11.312 0l16-16a8.001 8.001 0 0 0 1.776-8.624l-11.616-29.032H101.6c14.58 0 26.4 11.82 26.4 26.4v45.6zm165.112-80.872a42.14 42.14 0 0 0-18.2-6.736A55.528 55.528 0 0 0 296 335.998c0-52.896-30.456-64-56-64s-56 11.104-56 64a55.53 55.53 0 0 0 21.096 40.392c-21.206 2.613-37.127 20.641-37.096 42.008v53.6a8 8 0 0 0 8 8h128a8 8 0 0 0 8-8v-53.6a42.328 42.328 0 0 0-18.888-35.272zm-92.696-55.592c2.168-26.816 14.784-39.536 39.584-39.536 22.704 0 35.2 10.736 38.776 33.136l-26.656-16a8 8 0 0 0-11.704 4.328c-4.048 12.144-25.904 16.736-40 18.072zm.696 16.048c13.696-1.128 38.4-5.272 49.92-20.44l28.592 17.16c-3.208 19.592-27.344 35.696-39.624 35.696a50.402 50.402 0 0 1-38.888-32.416zm45.496 78.48L240 428.686l-6.608-6.616L240 405.534l6.608 16.528zM296 463.998H184v-45.6c0-14.58 11.82-26.4 26.4-26.4h17.76l-11.616 29.032a8.001 8.001 0 0 0 1.776 8.624l16 16a8 8 0 0 0 11.312 0l16-16a8.001 8.001 0 0 0 1.776-8.624l-11.592-29.032H269.6c14.58 0 26.4 11.82 26.4 26.4v45.6zm165.112-80.872a42.14 42.14 0 0 0-18.2-6.736A55.528 55.528 0 0 0 464 335.998c0-52.896-30.456-64-56-64s-56 11.104-56 64a55.53 55.53 0 0 0 21.096 40.392c-21.206 2.613-37.127 20.641-37.096 42.008v53.6a8 8 0 0 0 8 8h128a8 8 0 0 0 8-8v-53.6a42.328 42.328 0 0 0-18.888-35.272zm-92.696-55.592c2.168-26.816 14.784-39.536 39.584-39.536 22.704 0 35.2 10.736 38.776 33.136l-26.656-16a8 8 0 0 0-11.704 4.328c-4.048 12.144-25.904 16.736-40 18.072zm.696 16.048c13.696-1.128 38.4-5.272 49.92-20.44l28.592 17.16c-3.208 19.592-27.344 35.696-39.624 35.696a50.402 50.402 0 0 1-38.888-32.416zm45.496 78.48L408 428.686l-6.608-6.616L408 405.534l6.608 16.528zM464 463.998H352v-45.6c0-14.58 11.82-26.4 26.4-26.4h17.76l-11.616 29.032a8.001 8.001 0 0 0 1.776 8.624l16 16a8 8 0 0 0 11.312 0l16-16a8.001 8.001 0 0 0 1.776-8.624l-11.592-29.032H437.6c14.58 0 26.4 11.82 26.4 26.4v45.6zm-96-224v-104a8 8 0 0 0-8-8h-72v-24a8 8 0 0 0-8-8h-48.6a63.856 63.856 0 0 0-57.36-32C138.943 65.964 111.607 95.2 112 130.35a109.597 109.597 0 0 0 17.168 58.96l32.256 50.688H152v16h224v-16h-8zm-168 0h-9.424L200 225.19v14.808zm-24-6.896l-33.328-52.384A93.594 93.594 0 0 1 128 130.35c-.453-26.524 20.044-48.709 46.52-50.352H176c26.51 0 48 21.49 48 48v2.352a93.596 93.596 0 0 1-14.672 50.4L176 233.102zm96 6.896h-56v-39.96l6.832-10.728A109.597 109.597 0 0 0 240 130.35v-2.352a64.332 64.332 0 0 0-2.08-16H272v128zm56 0h-16v-24h16v24zm24-88h-16v16h16v8h-16v16h16v48h-8v-32a8 8 0 0 0-8-8h-32a8 8 0 0 0-8 8v32h-8v-48h16v-16h-16v-8h16v-16h-16v-8h64v8z"/><path d="M248 119.998h16v16h-16zm64 32h16v16h-16zm0 24h16v16h-16zm-64-32h16v16h-16zm0 24h16v16h-16zm-24 24h16v16h-16zm24 0h16v16h-16zm-24 24h16v16h-16zm24 0h16v16h-16zm195.944-49.08l-15.688 3.16a200.807 200.807 0 0 1 2.4 14.856l15.864-1.888a210.079 210.079 0 0 0-2.576-16.128zM36 167.302a200.402 200.402 0 0 0-2.56 16.104l15.888 1.872a192.759 192.759 0 0 1 2.352-14.88L36 167.302zm385.312-61.312l-13.936 7.856c2.456 4.344 4.8 8.848 6.88 13.4l14.504-6.752c-2.288-4.92-4.8-9.8-7.448-14.504zm-18.176-27.056l-12.56 9.936c3.096 3.896 6.088 8 8.896 12.168l13.264-8.936a220.06 220.06 0 0 0-9.6-13.168zm-326.44.264c-3.368 4.24-6.6 8.68-9.616 13.176l13.296 8.904a190.519 190.519 0 0 1 8.864-12.176l-12.544-9.904zM380.96 55.046l-10.848 11.76c3.704 3.424 7.296 7 10.664 10.632l11.736-10.872a209.256 209.256 0 0 0-11.552-11.52zM58.536 106.254a206.902 206.902 0 0 0-7.432 14.544l14.512 6.72a193.471 193.471 0 0 1 6.856-13.408l-13.936-7.856zm-13.688 29.64a202.866 202.866 0 0 0-5.048 15.528l15.392 4.344c1.352-4.8 2.92-9.6 4.672-14.336l-15.016-5.536zm53.976-80.656a198.61 198.61 0 0 0-11.536 11.536L99.04 77.63c3.36-3.664 6.976-7.232 10.64-10.64L98.824 55.238zm336.224 80.328l-15 5.56a190.495 190.495 0 0 1 4.688 14.32l15.392-4.376c-1.48-5.192-3.2-10.4-5.08-15.504zM183.416 7.798a216.646 216.646 0 0 0-15.504 5.048l5.544 15a198.246 198.246 0 0 1 14.32-4.656l-4.36-15.392zm32-6.352a215.863 215.863 0 0 0-16.112 2.536l3.096 15.704a192.347 192.347 0 0 1 14.888-2.352l-1.872-15.888zM231.68.158l.608 16c4.992-.176 10.08-.192 15.072 0l.64-16c-5.416-.216-10.904-.2-16.32 0zm-78.84 18.928c-4.904 2.264-9.8 4.8-14.528 7.424l7.84 13.952c4.368-2.456 8.872-4.8 13.408-6.856l-6.72-14.52zM264.232 1.398L262.4 17.286c4.92.568 9.928 1.352 14.888 2.32l3.064-15.704a207.884 207.884 0 0 0-16.12-2.504zm91.088 33.464l-8.872 13.312a193.133 193.133 0 0 1 12.192 8.848l9.888-12.576a207.91 207.91 0 0 0-13.208-9.584zM296.224 7.694l-4.296 15.408c4.8 1.344 9.6 2.896 14.32 4.624l5.512-15.016a199.606 199.606 0 0 0-15.536-5.016zm-171.816 27.36a213.674 213.674 0 0 0-13.176 9.6l9.904 12.56c3.888-3.072 8-6.056 12.192-8.88l-8.92-13.28zm202.44-16.112L320.16 33.47a203.867 203.867 0 0 1 13.44 6.832l7.8-13.968a214.146 214.146 0 0 0-14.552-7.392zM176 95.998c-17.673 0-32 14.327-32 32s14.327 32 32 32 32-14.327 32-32-14.327-32-32-32zm0 48c-8.837 0-16-7.163-16-16s7.163-16 16-16 16 7.163 16 16-7.163 16-16 16z"/></symbol><symbol viewBox="0 0 264 88" id="lightbox--default-skin" xmlns="http://www.w3.org/2000/svg"><g fill-rule="evenodd"><path d="M67.002 59.5v3.768c-6.307.84-9.184 5.75-10.002 9.732 2.22-2.83 5.564-5.098 10.002-5.098V71.5L73 65.585 67.002 59.5zM13 29v-5h2v3h3v2h-5zm0-14h5v2h-3v3h-2v-5zm18 0v5h-2v-3h-3v-2h5zm0 14h-5v-2h3v-3h2v5zm31-5v5h-2v-3h-3v-2h5zm0-4h-5v-2h3v-3h2v5zm8 0v-5h2v3h3v2h-5zm0 4h5v2h-3v3h-2v-5zM20.586 66l-5.656-5.656 1.414-1.414L22 64.586l5.656-5.656 1.414 1.414L23.414 66l5.656 5.656-1.414 1.414L22 67.414l-5.656 5.656-1.414-1.414L20.586 66zm91.199-.97L110 63.5l3-3.5h-10v-2h10l-3-3.5 1.785-1.468L117 59l-5.215 6.03zm40.43 0L154 63.5l-3-3.5h10v-2h-10l3-3.5-1.785-1.468L147 59l5.215 6.03zm8.742-36.487l-3.25-3.25-1.413 1.414 3.25 3.25zM152.5 27a5.5 5.5 0 1 0 0-11 5.5 5.5 0 1 0 0 11z"/><path d="M150 21h5v1h-5zM116.957 28.543l-1.414 1.414-3.25-3.25 1.414-1.414 3.25 3.25zM108.5 27a5.5 5.5 0 1 0 0-11 5.5 5.5 0 1 0 0 11z"/><path d="M106 21h5v1h-5z"/><path d="M109.043 19.008l-.085 5-1-.017.085-5z"/></g></symbol><symbol viewBox="0 0 24 24" id="svg--arrow_left" xmlns="http://www.w3.org/2000/svg"><path d="M15.41 16.09l-4.58-4.59 4.58-4.59L14 5.5l-6 6 6 6z"/><path d="M0-.5h24v24H0z"/></symbol><symbol viewBox="0 0 24 24" id="svg--arrow_right" xmlns="http://www.w3.org/2000/svg"><path d="M8.59 16.34l4.58-4.59-4.58-4.59L10 5.75l6 6-6 6z"/><path d="M0-.25h24v24H0z"/></symbol><symbol viewBox="0 0 512 512" id="usage_icons--analysis" xmlns="http://www.w3.org/2000/svg"><path d="M505.418 34.829a7.537 7.537 0 0 0-5.123-2.654l-111.428-9.517-2.02-16.058c-.52-4.131-4.299-7.059-8.42-6.54L275.06 13.056a7.502 7.502 0 0 0-1.258-.223L131.726.697c-4.091-.36-7.805 2.786-8.153 6.869l-2.118 24.8L11.406 46.202c-4.072.512-7.051 4.345-6.54 8.42L61.04 501.43c.255 2.038-.182 3.996.651 5.967 1.168 2.761 3.948 4.604 6.947 4.604h369.909a7.537 7.537 0 0 0 7.539-7.539v-9.819l14.601 1.247c4.091.355 7.805-2.784 8.153-6.869L507.163 40.33a7.536 7.536 0 0 0-1.745-5.501zM61.099 381.023L20.768 60.221l40.331-5.07v325.872zm76.856-364.661l65.98 5.635-67.182 8.447 1.202-14.082zm234.873-.401l3.852 30.637H129.129l243.699-30.637zm81.631 464.264l-8.373-.715V259.195c0-4.164-3.374-7.539-7.539-7.539s-7.539 3.374-7.539 7.539v237.727H76.177V61.676h354.832v162.338c0 4.165 3.374 7.539 7.539 7.539s7.539-3.374 7.539-7.539V54.137a7.538 7.538 0 0 0-7.539-7.539h-46.671l-1.087-8.643 100.709 8.602-37.04 433.668z"/><path d="M398.34 86.806h-40.208a7.534 7.534 0 0 0-6.272 3.357l-17.064 25.596c-18.367-13.157-40.854-20.912-65.12-20.912a7.538 7.538 0 0 0-7.539 7.539v104.54a7.538 7.538 0 0 0 7.539 7.539h104.54a7.537 7.537 0 0 0 7.539-7.539c0-32.097-13.566-61.081-35.26-81.533l15.673-23.509h36.173a7.539 7.539 0 1 0-.001-15.078zm-31.953 112.581h-89.172v-89.172c18.283 1.412 35.15 7.932 49.206 18.107l-6.727 10.091c-2.101 3.15-1.485 7.513 1.417 9.95 3.398 2.854 8.669 2.101 11.128-1.586l5.757-8.636c16.029 15.922 26.547 37.386 28.391 61.246z"/><path d="M398.34 336.092h-68.195l-12.016-19.225c19.465-20.17 31.459-47.598 31.459-77.775a7.537 7.537 0 0 0-7.539-7.539h-97.001v-97.001a7.539 7.539 0 0 0-7.539-7.539c-61.8 0-112.079 50.279-112.079 112.079 0 61.8 50.279 112.079 112.079 112.079 26.123 0 50.185-8.984 69.264-24.023l12.8 20.48a7.54 7.54 0 0 0 6.393 3.543h72.374c4.164 0 7.539-3.374 7.539-7.539s-3.375-7.54-7.539-7.54zm-106.187-60.788a7.537 7.537 0 0 0-10.389-2.398 7.539 7.539 0 0 0-2.398 10.389l19.364 30.982c-16.709 13.631-38.026 21.817-61.22 21.817-53.486 0-97.001-43.515-97.001-97.001 0-50.95 39.485-92.851 89.462-96.711v96.711a7.539 7.539 0 0 0 7.539 7.539h96.711c-1.684 21.801-10.608 41.604-24.362 57.004l-17.706-28.332zM173.177 376.3h-64.332c-4.163 0-7.539 3.374-7.539 7.539s3.375 7.539 7.539 7.539h64.332c4.164 0 7.539-3.374 7.539-7.539s-3.375-7.539-7.539-7.539zm96.499 0h-64.332c-4.164 0-7.539 3.374-7.539 7.539s3.375 7.539 7.539 7.539h64.332c4.164 0 7.539-3.374 7.539-7.539s-3.375-7.539-7.539-7.539zm-56.291 40.208h-104.54a7.539 7.539 0 0 0-7.539 7.539 7.538 7.538 0 0 0 7.539 7.539h104.54a7.538 7.538 0 0 0 7.539-7.539 7.539 7.539 0 0 0-7.539-7.539zm56.291 0h-24.125a7.539 7.539 0 0 0-7.539 7.539 7.538 7.538 0 0 0 7.539 7.539h24.125a7.538 7.538 0 0 0 7.539-7.539 7.539 7.539 0 0 0-7.539-7.539zm-128.665 40.207h-32.166c-4.163 0-7.539 3.374-7.539 7.539s3.375 7.539 7.539 7.539h32.166c4.164 0 7.539-3.374 7.539-7.539s-3.375-7.539-7.539-7.539zm128.665 0h-96.498c-4.163 0-7.539 3.374-7.539 7.539s3.375 7.539 7.539 7.539h96.498c4.164 0 7.539-3.374 7.539-7.539s-3.375-7.539-7.539-7.539z"/></symbol><symbol viewBox="0 0 512.001 512.001" id="usage_icons--content-audit" xmlns="http://www.w3.org/2000/svg"><path d="M400.003 152H256.001c-5.523 0-10 4.477-10 10s4.477 10 10 10h144.002c5.523 0 10-4.477 10-10s-4.477-10-10-10zm-34.992 50.931c-1.86-1.86-4.44-2.93-7.07-2.93s-5.21 1.07-7.07 2.93c-1.86 1.86-2.93 4.44-2.93 7.07s1.07 5.21 2.93 7.07 4.44 2.93 7.07 2.93 5.21-1.07 7.07-2.93c1.86-1.86 2.93-4.44 2.93-7.07s-1.07-5.21-2.93-7.07zm-101.95-157c-1.86-1.86-4.44-2.93-7.07-2.93s-5.21 1.07-7.07 2.93c-1.86 1.86-2.93 4.44-2.93 7.07s1.07 5.21 2.93 7.07c1.86 1.86 4.44 2.93 7.07 2.93s5.21-1.07 7.07-2.93c1.86-1.86 2.93-4.44 2.93-7.07s-1.07-5.21-2.93-7.07zM315.878 200h-59.877c-5.523 0-10 4.477-10 10s4.477 10 10 10h59.877c5.523 0 10-4.477 10-10s-4.477-10-10-10zm84.125 60H256.001c-5.523 0-10 4.477-10 10s4.477 10 10 10h144.002c5.523 0 10-4.477 10-10s-4.477-10-10-10zm-34.992 50.931c-1.86-1.86-4.44-2.93-7.07-2.93s-5.21 1.07-7.07 2.93c-1.86 1.86-2.93 4.44-2.93 7.07s1.07 5.21 2.93 7.07 4.44 2.93 7.07 2.93 5.21-1.07 7.07-2.93c1.86-1.86 2.93-4.44 2.93-7.07s-1.07-5.21-2.93-7.07zM315.878 308h-59.877c-5.523 0-10 4.477-10 10s4.477 10 10 10h59.877c5.523 0 10-4.477 10-10s-4.477-10-10-10zm84.125 60H256.001c-5.523 0-10 4.477-10 10s4.477 10 10 10h144.002c5.523 0 10-4.477 10-10s-4.477-10-10-10zm-34.992 50.931c-1.86-1.86-4.44-2.93-7.07-2.93s-5.21 1.07-7.07 2.93c-1.86 1.86-2.93 4.44-2.93 7.07s1.07 5.21 2.93 7.07 4.44 2.93 7.07 2.93 5.21-1.07 7.07-2.93c1.86-1.86 2.93-4.44 2.93-7.07s-1.07-5.21-2.93-7.07zM315.878 416h-59.877c-5.523 0-10 4.477-10 10s4.477 10 10 10h59.877c5.523 0 10-4.477 10-10s-4.477-10-10-10z"/><path d="M419.243 39.001h-76.379C331.823 28.48 316.898 22 300.479 22h-8.76C285.022 8.742 271.263 0 256 0s-29.021 8.742-35.719 22H211.5c-16.419 0-31.343 6.48-42.384 17.001H92.759c-26.885 0-48.758 21.873-48.758 48.758v375.484c0 26.885 21.873 48.758 48.758 48.758h326.483c26.885 0 48.758-21.873 48.758-48.758V87.759c.001-26.885-21.872-48.758-48.757-48.758zM211.501 42h15.586a10 10 0 0 0 9.639-7.338C239.111 26.029 247.037 20 256.001 20c8.964 0 16.89 6.029 19.274 14.662A10 10 0 0 0 284.914 42h15.565c21.705 0 39.571 16.75 41.354 38.001H170.147C171.93 58.75 189.797 42 211.501 42zm236.5 421.244c0 15.857-12.901 28.758-28.758 28.758H92.759c-15.857 0-28.758-12.901-28.758-28.758V87.759c0-15.857 12.901-28.758 28.758-28.758h62.347a61.135 61.135 0 0 0-5.105 24.5v6.5c0 5.523 4.477 10 10 10H351.98c5.523 0 10-4.477 10-10v-6.5a61.139 61.139 0 0 0-5.105-24.5h62.368c15.857 0 28.758 12.901 28.758 28.758v375.485z"/><path d="M192.41 149.596c-3.905-3.905-10.237-3.905-14.142-.001l-42.762 42.763-13.173-13.174c-3.905-3.904-10.237-3.904-14.143 0-3.905 3.905-3.905 10.237 0 14.143l20.245 20.245a9.968 9.968 0 0 0 7.071 2.929 9.966 9.966 0 0 0 7.071-2.929l49.833-49.833c3.905-3.905 3.905-10.237 0-14.143zM168.001 368h-48c-5.523 0-10 4.477-10 10v48c0 5.523 4.477 10 10 10h48c5.523 0 10-4.477 10-10v-48c0-5.523-4.477-10-10-10zm-10 48h-28v-28h28v28zm10-156h-48c-5.523 0-10 4.477-10 10v48c0 5.523 4.477 10 10 10h48c5.523 0 10-4.477 10-10v-48c0-5.523-4.477-10-10-10zm-10 48h-28v-28h28v28z"/></symbol><symbol viewBox="0 0 512 512" id="usage_icons--reports" xmlns="http://www.w3.org/2000/svg"><path d="M444.519 17.067h-25.6V8.533c0-4.713-3.82-8.533-8.533-8.533s-8.533 3.82-8.533 8.533v8.533h-102.4V8.533c0-4.713-3.82-8.533-8.533-8.533s-8.533 3.82-8.533 8.533v8.533h-102.4V8.533c0-4.713-3.82-8.533-8.533-8.533s-8.533 3.82-8.533 8.533v8.533h-25.6c-14.132.015-25.585 11.468-25.6 25.6V204.8a8.533 8.533 0 0 0 17.066 0V42.667a8.544 8.544 0 0 1 8.533-8.533h25.6v18.639c-11.755 4.156-18.806 16.176-16.698 28.465 2.108 12.289 12.763 21.271 25.231 21.271s23.123-8.982 25.231-21.271-4.943-24.309-16.698-28.465v-18.64h102.4v18.639c-11.755 4.156-18.806 16.176-16.698 28.465s12.763 21.271 25.231 21.271 23.123-8.982 25.231-21.271-4.943-24.309-16.698-28.465V34.133h102.4v18.639c-11.755 4.156-18.806 16.176-16.698 28.465 2.108 12.289 12.763 21.271 25.231 21.271s23.123-8.982 25.231-21.271-4.943-24.309-16.698-28.465V34.133h25.6a8.544 8.544 0 0 1 8.533 8.533V486.4a8.544 8.544 0 0 1-8.533 8.533h-307.2a8.544 8.544 0 0 1-8.533-8.533V366.933c0-4.713-3.82-8.533-8.533-8.533s-8.533 3.82-8.533 8.533V486.4c.015 14.132 11.468 25.585 25.6 25.6h307.2c14.132-.015 25.585-11.468 25.6-25.6V42.667c-.015-14.132-11.468-25.585-25.6-25.6zM171.452 85.333c-4.713 0-8.533-3.82-8.533-8.533s3.82-8.533 8.533-8.533 8.533 3.82 8.533 8.533a8.543 8.543 0 0 1-8.533 8.533zm119.467 0c-4.713 0-8.533-3.82-8.533-8.533s3.82-8.533 8.533-8.533 8.533 3.82 8.533 8.533a8.544 8.544 0 0 1-8.533 8.533zm119.467 0c-4.713 0-8.533-3.82-8.533-8.533s3.82-8.533 8.533-8.533 8.533 3.82 8.533 8.533a8.544 8.544 0 0 1-8.533 8.533z"/><path d="M171.452 179.2a8.531 8.531 0 0 0 6.825-3.413l25.6-34.133a8.53 8.53 0 0 0-5.803-13.592 8.533 8.533 0 0 0-7.847 3.35l-19.7 26.263-10.109-10.108a8.533 8.533 0 0 0-12.066 12.066l17.067 17.067a8.523 8.523 0 0 0 6.033 2.5zm-23.099 74.3l17.067 17.067a8.518 8.518 0 0 0 6.637 2.479 8.531 8.531 0 0 0 6.221-3.392l25.6-34.133a8.533 8.533 0 0 0-13.65-10.242l-19.7 26.263-10.109-10.108a8.533 8.533 0 0 0-12.066 12.066zm82.833-82.833h196.267c4.713 0 8.533-3.82 8.533-8.533s-3.82-8.533-8.533-8.533H231.186c-4.713 0-8.533 3.82-8.533 8.533s3.82 8.533 8.533 8.533zm0 93.866h196.267c4.713 0 8.533-3.82 8.533-8.533s-3.82-8.533-8.533-8.533H231.186c-4.713 0-8.533 3.82-8.533 8.533s3.82 8.533 8.533 8.533zm0 93.867h196.267c4.713 0 8.533-3.82 8.533-8.533s-3.82-8.533-8.533-8.533H231.186c-4.713 0-8.533 3.82-8.533 8.533s3.82 8.533 8.533 8.533zm0 93.867h196.267c4.713 0 8.533-3.82 8.533-8.533s-3.82-8.533-8.533-8.533H231.186c-4.713 0-8.533 3.82-8.533 8.533s3.82 8.533 8.533 8.533zm-63.462-102.596l6.229 6.229a8.532 8.532 0 1 0 12.066-12.066l-6.072-6.072a66.76 66.76 0 0 0-17.719-44.603l-74.133-80.313a26.318 26.318 0 0 0-17.55-8.384c-.498-.038-.975-.168-1.479-.178h-.004a27.632 27.632 0 0 0-15.168 4.397 26.188 26.188 0 0 0-4.186 3.399c-10.141 10.087-10.467 26.395-.738 36.879l12.787 13.854.003.002 60.468 65.506a67.133 67.133 0 0 0 45.496 21.35zM61.511 237.383a9.555 9.555 0 0 1 7.013-16.037l.2.004a9.454 9.454 0 0 1 6.825 3.071l6.246 6.767-13.519 13.523-6.765-7.328zm31.871 6.354l56.304 60.996a49.707 49.707 0 0 1 12.8 27.25 50.057 50.057 0 0 1-27.717-15.237l-54.91-59.486 13.523-13.523z"/></symbol><symbol viewBox="0 0 489.535 489.535" id="usage_icons--storekeeper" xmlns="http://www.w3.org/2000/svg"><path d="M292.128 151.386l-8.411 11.917c1.603.385 3.133.98 4.854.98h82.11c11.777 0 21.332-9.549 21.332-21.333V67c0-11.786-9.555-21.333-21.332-21.333h-82.11c-11.777 0-21.333 9.547-21.333 21.333v21.205a40.394 40.394 0 0 1 15.128 6.548c18.333 12.944 22.714 38.292 9.762 56.633zm-33.919 47.847c-10.672 14.035-29.228 19.722-45.968 13.691l-12.942-4.641c-2.549 3.514-4.359 7.608-4.359 12.282v75.951c0 11.786 9.556 21.333 21.333 21.333h82.11c11.776 0 21.332-9.547 21.332-21.333v-75.951c0-11.786-9.556-21.333-21.332-21.333h-40.174zm-101.398-89.467c5.923.198 11.771 1.18 17.385 3.176l36.379 13.055 15.174-21.483c3.455-4.896 7.838-8.714 12.699-11.553V67c0-11.786-9.556-21.333-21.332-21.333h-34.469c.431 3.131.959 6.236.959 9.484 0 22.207-10.604 41.795-26.795 54.615zm-43.138-.935c29.649 0 53.68-24.03 53.68-53.68s-24.03-53.689-53.68-53.689-53.697 24.039-53.697 53.689 24.047 53.68 53.697 53.68zm234.833 111.735v75.951c0 11.786 9.556 21.333 21.333 21.333h82.11c11.777 0 21.332-9.547 21.332-21.333v-75.951c0-11.786-9.555-21.333-21.332-21.333h-82.11c-11.777 0-21.333 9.547-21.333 21.333z"/><path d="M473.281 340.769H172.75v-159.27l44.967 16.131c10.317 3.698 21.842.056 28.158-8.889l32.983-46.729c7.762-11.008 5.143-26.214-5.856-33.983-11.017-7.785-26.238-5.135-33.984 5.857l-22.285 31.586-47.998-17.222a41.302 41.302 0 0 0-13.841-2.397H81.705a41.022 41.022 0 0 0-39.109 28.404L1.199 281.502c-4.158 12.801 2.842 26.555 15.65 30.721a24.313 24.313 0 0 0 7.54 1.206c10.285 0 19.841-6.547 23.19-16.849l7.015-21.56v188.389c0 13.62 11.049 24.665 24.667 24.665 13.618 0 24.666-11.04 24.666-24.665V315.991h19.491v147.417c0 13.626 11.047 24.665 24.666 24.665s24.666-11.04 24.666-24.665v-90.132h300.531c8.984 0 16.254-7.278 16.254-16.253 0-8.976-7.269-16.254-16.254-16.254z"/></symbol></svg>