<?xml version="1.0" encoding="iso-8859-1"?>
<!-- Generator: Adobe Illustrator 18.0.0, SVG Export Plug-In . SVG Version: 6.00 Build 0)  -->
<!DOCTYPE svg PUBLIC "-//W3C//DTD SVG 1.1//EN" "http://www.w3.org/Graphics/SVG/1.1/DTD/svg11.dtd">
<svg version="1.1" id="Capa_1" xmlns="http://www.w3.org/2000/svg" xmlns:xlink="http://www.w3.org/1999/xlink" x="0px" y="0px"
	 viewBox="0 0 418.633 418.633" style="enable-background:new 0 0 418.633 418.633;" xml:space="preserve">
<g>
	<path d="M402.875,111.836L295.633,93.635l-11.376-88.4c-0.204-1.578-1.025-3.012-2.285-3.984c-1.26-0.973-2.854-1.404-4.433-1.201
		L15.996,33.709c-3.287,0.424-5.608,3.432-5.185,6.717l38.178,296.65c0.39,3.027,2.971,5.234,5.944,5.234
		c0.255,0,0.513-0.016,0.773-0.049l35.271-4.539L85.923,367.5c-0.554,3.266,1.645,6.363,4.912,6.918l259.982,44.131
		c0.334,0.057,0.669,0.084,1.004,0.084c1.236,0,2.452-0.381,3.473-1.107c1.298-0.92,2.176-2.318,2.443-3.889l50.051-294.881
		C408.341,115.489,406.142,112.391,402.875,111.836z M60.125,329.594L23.479,44.846l249.642-32.129l10.144,78.818L263.1,88.112
		l-6.119-47.543c-0.423-3.287-3.43-5.607-6.716-5.186L51.329,60.985c-3.287,0.422-5.608,3.43-5.185,6.717l25.602,198.935
		c0.389,3.027,2.97,5.234,5.943,5.234c0.255,0,0.514-0.016,0.773-0.049l24.229-3.119l-9.615,56.65L60.125,329.594z M104.79,256.334
		l-21.909,2.82L58.812,72.121l187.034-24.07l4.885,37.961L142.892,67.709c-1.57-0.268-3.179,0.1-4.477,1.021
		c-1.298,0.922-2.176,2.32-2.443,3.889L104.79,256.334z M346.909,405.713L98.757,363.592l48.042-283.049l248.152,42.119
		L346.909,405.713z"/>
	<path d="M133.156,313.686l197.748,33.565c0.334,0.057,0.669,0.086,1.004,0.086c1.236,0,2.452-0.383,3.473-1.107
		c1.298-0.922,2.176-2.32,2.443-3.889l33.564-197.748c0.554-3.268-1.645-6.365-4.912-6.92l-197.749-33.566
		c-1.568-0.266-3.18,0.102-4.477,1.023c-1.298,0.92-2.176,2.318-2.443,3.889l-33.563,197.748
		C127.69,310.034,129.889,313.131,133.156,313.686z M172.635,116.942l185.917,31.557l-31.556,185.918L141.079,302.86
		L172.635,116.942z"/>
</g>
<g>
</g>
<g>
</g>
<g>
</g>
<g>
</g>
<g>
</g>
<g>
</g>
<g>
</g>
<g>
</g>
<g>
</g>
<g>
</g>
<g>
</g>
<g>
</g>
<g>
</g>
<g>
</g>
<g>
</g>
</svg>
